<svg width="24" height="24" viewBox="0 0 24 24" fill="none" xmlns="http://www.w3.org/2000/svg">
<path d="M11.1554 3.53264C11.5137 2.82245 12.4863 2.82245 12.8446 3.53264L14.9916 7.78806C15.1298 8.06194 15.3816 8.25329 15.6734 8.30608L20.2069 9.12638C20.9635 9.26328 21.2641 10.2306 20.7289 10.8064L17.5223 14.2567C17.3159 14.4788 17.2197 14.7884 17.2618 15.0949L17.9168 19.8573C18.0261 20.6521 17.2392 21.2499 16.5502 20.8956L12.4214 18.7726C12.1556 18.636 11.8444 18.636 11.5786 18.7726L7.44984 20.8956C6.76079 21.2499 5.97393 20.6521 6.08323 19.8573L6.73815 15.0949C6.7803 14.7884 6.6841 14.4788 6.47773 14.2567L3.27108 10.8064C2.73593 10.2306 3.03648 9.26328 3.79307 9.12638L8.32662 8.30608C8.6184 8.25329 8.87025 8.06194 9.00842 7.78806L11.1554 3.53264Z" stroke="#02062E" stroke-width="2" stroke-linejoin="round"/>
</svg>
