<svg width="24" height="24" viewBox="0 0 24 24" fill="none" xmlns="http://www.w3.org/2000/svg">
<path fill-rule="evenodd" clip-rule="evenodd" d="M6.5 3C6.10218 3 5.72064 3.15804 5.43934 3.43934C5.15804 3.72064 5 4.10218 5 4.5V16.3377C5.46443 16.1174 5.97616 16 6.5 16H19V3H6.5ZM18 18H6.5C6.10218 18 5.72064 18.158 5.43934 18.4393C5.15804 18.7206 5 19.1022 5 19.5C5 19.8978 5.15804 20.2794 5.43934 20.5607C5.72064 20.842 6.10218 21 6.5 21H18V18ZM20 20.5858L20.7071 21.2929C20.9931 21.5789 21.0787 22.009 20.9239 22.3827C20.7691 22.7564 20.4045 23 20 23H6.5C5.57174 23 4.6815 22.6313 4.02513 21.9749C3.36875 21.3185 3 20.4283 3 19.5V4.5C3 3.57174 3.36875 2.6815 4.02513 2.02513C4.6815 1.36875 5.57174 1 6.5 1H20C20.5523 1 21 1.44772 21 2V17C21 17.2652 20.8946 17.5196 20.7071 17.7071L20 18.4142V20.5858ZM8 8C8 7.44771 8.44772 7 9 7H15C15.5523 7 16 7.44771 16 8C16 8.55229 15.5523 9 15 9H9C8.44772 9 8 8.55229 8 8ZM11 10C10.4477 10 10 10.4477 10 11C10 11.5523 10.4477 12 11 12H13C13.5523 12 14 11.5523 14 11C14 10.4477 13.5523 10 13 10H11Z" fill="#02062E"/>
</svg>
