<svg width="100%" height="100%" viewBox="0 0 24 24" fill="none" xmlns="http://www.w3.org/2000/svg">
<path fill-rule="evenodd" clip-rule="evenodd" d="M12 1C12.5523 1 13 1.44772 13 2V3.07089C16.3923 3.55612 19 6.47353 19 10V14C19 15.7087 19.6169 16.3761 20.0547 16.6679C20.3028 16.8333 20.5554 16.9185 20.7482 16.9613C20.8433 16.9824 20.9192 16.9922 20.9659 16.9967C20.9891 16.9989 21.0044 16.9997 21.0107 17C21.0113 17 21.0118 17.0001 21.0122 17.0001C21.5589 17.0066 22 17.4518 22 18C22 18.5523 21.5523 19 21 19H20.9987H3.00134H3C2.44772 19 2 18.5523 2 18C2 17.4518 2.44113 17.0066 2.98779 17.0001C2.98821 17.0001 2.98871 17 2.98929 17C2.99555 16.9997 3.01093 16.9989 3.0341 16.9967C3.08078 16.9922 3.15671 16.9824 3.25182 16.9613C3.44462 16.9185 3.69722 16.8333 3.9453 16.6679C4.38309 16.3761 5 15.7087 5 14V10C5 6.47353 7.60771 3.55612 11 3.07089V2C11 1.44772 11.4477 1 12 1ZM6.29638 17H17.7036C17.2754 16.2602 17 15.2796 17 14V10C17 7.23858 14.7614 5 12 5C9.23858 5 7 7.23858 7 10V14C7 15.2796 6.72459 16.2602 6.29638 17ZM9.27002 21.9963C9.27002 21.4441 9.71773 20.9963 10.27 20.9963H13.73C14.2823 20.9963 14.73 21.4441 14.73 21.9963C14.73 22.5486 14.2823 22.9963 13.73 22.9963H10.27C9.71773 22.9963 9.27002 22.5486 9.27002 21.9963Z" fill="currentColor"/>
</svg>
