<svg width="16" height="16" viewBox="0 0 16 16" fill="none" xmlns="http://www.w3.org/2000/svg">
<path fill-rule="evenodd" clip-rule="evenodd" d="M3.76365 2.43101C3.82616 2.36849 3.91094 2.33337 3.99935 2.33337H11.9993C12.0878 2.33337 12.1725 2.36849 12.2351 2.43101C12.2976 2.49352 12.3327 2.5783 12.3327 2.66671V13.3859L10.9086 13.0298C10.7493 12.99 10.5827 12.99 10.4235 13.0298L7.99935 13.6359L5.57522 13.0298C5.41598 12.99 5.24939 12.99 5.09015 13.0298L3.66602 13.3859V2.66671C3.66602 2.5783 3.70113 2.49352 3.76365 2.43101ZM3.99935 0.333374C3.38051 0.333374 2.78702 0.579207 2.34943 1.01679C1.91185 1.45438 1.66602 2.04787 1.66602 2.66671V14.6666C1.66602 14.9746 1.80789 15.2653 2.0506 15.4549C2.29332 15.6444 2.60981 15.7115 2.90855 15.6368L5.33268 15.0308L7.75681 15.6368C7.91605 15.6766 8.08264 15.6766 8.24188 15.6368L10.666 15.0308L13.0901 15.6368C13.3889 15.7115 13.7054 15.6444 13.9481 15.4549C14.1908 15.2653 14.3327 14.9746 14.3327 14.6666V2.66671C14.3327 2.04787 14.0868 1.45438 13.6493 1.01679C13.2117 0.579207 12.6182 0.333374 11.9993 0.333374H3.99935ZM5.33268 3.66671C4.7804 3.66671 4.33268 4.11442 4.33268 4.66671C4.33268 5.21899 4.7804 5.66671 5.33268 5.66671H7.99935C8.55163 5.66671 8.99935 5.21899 8.99935 4.66671C8.99935 4.11442 8.55163 3.66671 7.99935 3.66671H5.33268ZM5.33268 6.33337C4.7804 6.33337 4.33268 6.78109 4.33268 7.33337C4.33268 7.88566 4.7804 8.33337 5.33268 8.33337H10.666C11.2183 8.33337 11.666 7.88566 11.666 7.33337C11.666 6.78109 11.2183 6.33337 10.666 6.33337H5.33268ZM5.33268 9.00004C4.7804 9.00004 4.33268 9.44776 4.33268 10C4.33268 10.5523 4.7804 11 5.33268 11H5.99935C6.55163 11 6.99935 10.5523 6.99935 10C6.99935 9.44776 6.55163 9.00004 5.99935 9.00004H5.33268ZM8.66602 9.00004C8.11373 9.00004 7.66602 9.44776 7.66602 10C7.66602 10.5523 8.11373 11 8.66602 11H10.666C11.2183 11 11.666 10.5523 11.666 10C11.666 9.44776 11.2183 9.00004 10.666 9.00004H8.66602Z" fill="#CC9A6C"/>
</svg>
