<svg width="13" height="16" viewBox="0 0 13 16" fill="none" xmlns="http://www.w3.org/2000/svg">
<path fill-rule="evenodd" clip-rule="evenodd" d="M3.33333 1.83301C3.02391 1.83301 2.72717 1.95592 2.50838 2.17472C2.28958 2.39351 2.16667 2.69026 2.16667 2.99967V8.66634C2.16667 8.94248 1.94281 9.16634 1.66667 9.16634C1.39052 9.16634 1.16667 8.94248 1.16667 8.66634V2.99967C1.16667 2.42504 1.39494 1.87394 1.80127 1.46761C2.2076 1.06128 2.7587 0.833008 3.33333 0.833008H12.3333C12.6095 0.833008 12.8333 1.05687 12.8333 1.33301V11.333C12.8333 11.4656 12.7807 11.5928 12.6869 11.6866L12.1667 12.2068V13.7926L12.6869 14.3128C12.8299 14.4558 12.8727 14.6708 12.7953 14.8577C12.7179 15.0445 12.5356 15.1663 12.3333 15.1663H6.33333C6.05719 15.1663 5.83333 14.9425 5.83333 14.6663C5.83333 14.3902 6.05719 14.1663 6.33333 14.1663H11.1953C11.1765 14.1133 11.1667 14.057 11.1667 13.9997V11.9997C11.1667 11.9424 11.1765 11.886 11.1953 11.833H9.66667C9.39052 11.833 9.16667 11.6092 9.16667 11.333C9.16667 11.0569 9.39052 10.833 9.66667 10.833H11.8333V1.83301H3.33333ZM4.5 5.33301C4.5 5.05687 4.72386 4.83301 5 4.83301H9C9.27614 4.83301 9.5 5.05687 9.5 5.33301C9.5 5.60915 9.27614 5.83301 9 5.83301H5C4.72386 5.83301 4.5 5.60915 4.5 5.33301ZM7.35355 9.14612C7.54882 9.34138 7.54882 9.65797 7.35355 9.85323L3.35355 13.8532C3.25979 13.947 3.13261 13.9997 3 13.9997C2.86739 13.9997 2.74021 13.947 2.64645 13.8532L0.646447 11.8532C0.451184 11.658 0.451184 11.3414 0.646447 11.1461C0.841709 10.9509 1.15829 10.9509 1.35355 11.1461L3 12.7926L6.64645 9.14612C6.84171 8.95086 7.15829 8.95086 7.35355 9.14612Z" fill="#3C4FF5"/>
</svg>
