<svg width="12" height="16" viewBox="0 0 12 16" fill="none" xmlns="http://www.w3.org/2000/svg">
<path fill-rule="evenodd" clip-rule="evenodd" d="M2.33074 1.83301C2.02132 1.83301 1.72458 1.95592 1.50579 2.17472C1.28699 2.39351 1.16408 2.69026 1.16408 2.99967V8.66634C1.16408 8.94248 0.940219 9.16634 0.664077 9.16634C0.387935 9.16634 0.164077 8.94248 0.164077 8.66634V2.99967C0.164077 2.42504 0.39235 1.87394 0.798679 1.46761C1.20501 1.06128 1.75611 0.833008 2.33074 0.833008H11.3307C11.6069 0.833008 11.8307 1.05687 11.8307 1.33301V11.333C11.8307 11.4656 11.7781 11.5928 11.6843 11.6866L11.1641 12.2068V13.7926L11.6843 14.3128C11.8273 14.4558 11.8701 14.6708 11.7927 14.8577C11.7153 15.0445 11.533 15.1663 11.3307 15.1663H5.33074C5.0546 15.1663 4.83074 14.9425 4.83074 14.6663C4.83074 14.3902 5.0546 14.1663 5.33074 14.1663H10.1927C10.1739 14.1133 10.1641 14.057 10.1641 13.9997V11.9997C10.1641 11.9424 10.1739 11.886 10.1927 11.833H8.66408C8.38793 11.833 8.16408 11.6092 8.16408 11.333C8.16408 11.0569 8.38793 10.833 8.66408 10.833H10.8307V1.83301H2.33074ZM3.49741 5.33301C3.49741 5.05687 3.72127 4.83301 3.99741 4.83301H7.99741C8.27355 4.83301 8.49741 5.05687 8.49741 5.33301C8.49741 5.60915 8.27355 5.83301 7.99741 5.83301H3.99741C3.72127 5.83301 3.49741 5.60915 3.49741 5.33301ZM6.91079 8.39362C6.71554 8.19836 6.39897 8.19835 6.2037 8.39359L2.02868 12.5679L1.55954 13.7438L2.7359 13.275L6.91077 9.10078C7.10606 8.90551 7.10607 8.5889 6.91079 8.39362ZM5.49665 7.68643C6.08245 7.10072 7.03214 7.10076 7.6179 7.68651C8.20373 8.27234 8.20369 9.22216 7.61781 9.80794L3.37016 14.0549C3.32214 14.1029 3.26484 14.1406 3.20176 14.1658L0.849198 15.1034C0.663577 15.1774 0.451732 15.1338 0.310462 14.9925C0.169192 14.8511 0.125627 14.6393 0.199674 14.4537L1.138 12.1018C1.16315 12.0388 1.20088 11.9815 1.24888 11.9335L5.49665 7.68643Z" fill="#3C4FF5"/>
</svg>
