<svg width="128" height="92" viewBox="0 0 128 92" fill="none" xmlns="http://www.w3.org/2000/svg">
<rect width="128" height="92" fill="white"/>
<path d="M123.265 49.9949C121.397 49.8242 51.2956 53.3728 51.2956 53.3728L6.65625 44.6002L67.4109 44.2651L123.265 49.9949Z" fill="#D6E7FA"/>
<path d="M51.6326 78.3999L7.6805 68.5758C7.6805 68.5758 2.90516 63.1347 3.58598 55.4822C4.2652 47.8296 6.65687 44.6001 6.65687 44.6001L51.2978 53.3728C51.2978 53.3728 45.3578 57.5995 46.7179 66.5669C48.0683 75.5278 51.6326 78.3999 51.6326 78.3999Z" fill="url(#paint0_linear_3702_41383)"/>
<path d="M20.1829 47.6749C20.1829 47.6749 17.796 50.9076 17.1168 58.5569C16.4536 65.9941 20.939 71.333 21.2033 71.6378L17.2193 70.749C17.2193 70.749 12.4455 65.308 13.1248 57.6506C13.804 50.0013 16.1909 46.7686 16.1909 46.7686" fill="#DA851F"/>
<path d="M53.6031 55.5907C53.6031 55.5907 47.0064 65.4931 53.3292 75.3939L119.54 72.9893C119.54 72.9893 122.182 72.5297 123.3 73.176C124.41 73.8222 123.268 75.5263 123.268 75.5263L51.6343 78.3984C51.6343 78.3984 48.07 75.5263 46.718 66.5669C45.358 57.5996 51.2979 53.3728 51.2979 53.3728C51.2979 53.3728 121.4 49.8226 123.268 49.9949C125.136 50.1656 123.947 52.5319 123.947 52.5319L119.538 52.7027L53.6031 55.5907Z" fill="#D6913D"/>
<path d="M117.764 64.8389C118.06 68.847 119.537 72.9893 119.537 72.9893L53.3266 75.3938C53.3266 75.3938 53.3186 75.3779 53.3026 75.3476C47.0262 65.4612 53.5989 55.5907 53.5989 55.5907L119.536 52.7026C119.536 52.7026 119.497 53.1303 119.387 53.8866C119.191 55.3035 118.777 57.8405 118.004 60.8147C117.966 60.9631 117.934 61.1099 117.91 61.2663C117.855 61.4992 117.815 61.7418 117.793 61.9907C117.698 62.7534 117.692 63.5624 117.73 64.3809C117.74 64.5357 117.748 64.6921 117.764 64.8389Z" fill="url(#paint1_linear_3702_41383)"/>
<path d="M34.3151 48.1424C34.2606 49.1157 34.1741 49.8704 34.0572 50.4544C34.1277 49.9725 34.1821 49.3885 34.2206 48.7024C34.3071 47.1531 34.0412 46.1175 33.6727 45.433C33.0319 44.2267 32.0708 44.0863 32.0708 44.0863L14.8789 39.3139V38.7299L32.1653 43.5247C32.1653 43.5247 33.1265 43.6651 33.7672 44.8714C34.1357 45.5575 34.4016 46.593 34.3151 48.1424Z" fill="#9291A5"/>
<path d="M34.2206 48.7008C34.1821 49.3853 34.1261 49.9693 34.0572 50.4528C34.0572 50.4608 34.0572 50.4688 34.0492 50.4767C33.6343 52.4234 32.8141 52.3755 31.603 51.8553C30.6499 51.4501 21.78 48.4232 14.8789 46.0872V39.3154L32.0724 44.0879C32.0724 44.0879 33.0335 44.2283 33.6743 45.4346C34.0412 46.1159 34.3071 47.1515 34.2206 48.7008Z" fill="url(#paint2_linear_3702_41383)"/>
<path d="M113.217 50.3922L33.8066 54.1834C33.8066 54.1834 36.0109 52.8686 36.0109 48.0259C36.0109 46.6872 35.7994 45.6517 35.4951 44.865L113.217 41.4552C113.217 41.4552 115.116 45.7825 113.217 50.3922Z" fill="url(#paint3_linear_3702_41383)"/>
<path d="M104.654 49.8194L99.3946 50.0763C99.2055 50.2645 99.3946 50.0763 99.3946 50.0763C100.679 46.9648 99.7438 43.756 99.4474 42.9343L104.655 42.7045C104.654 42.7061 106.163 46.1479 104.654 49.8194Z" fill="#718091"/>
<path d="M97.2922 50.0619L95.0078 50.172C96.3582 46.7957 95.2545 43.6396 95.0158 43.0476L97.2922 42.9455C97.2922 42.9455 98.7948 46.3888 97.2922 50.0619Z" fill="#718091"/>
<path d="M113.218 41.4552L35.4953 44.865C34.7136 42.8178 33.2991 42.4046 33.2991 42.4046L10.6895 36.3093L14.8785 36.1689L90.6384 33.6L113.218 41.4552Z" fill="url(#paint4_linear_3702_41383)"/>
<path d="M36.0111 48.0243C36.0111 52.8654 33.8069 54.1818 33.8069 54.1818L14.8785 47.4483L10.9634 46.0553L10.9249 44.7469C12.0975 45.1442 13.4416 45.6038 14.8801 46.0856C21.7812 48.4216 30.6511 51.4485 31.6042 51.8538C33.1821 52.5303 34.0888 52.4138 34.3163 48.1408C34.4028 46.5914 34.1369 45.5559 33.7684 44.8714C33.1276 43.6651 32.1665 43.5247 32.1665 43.5247L14.8785 38.7299L10.7279 37.5778L10.6895 36.3093L33.2991 42.4046C33.2991 42.4046 36.0111 43.1912 36.0111 48.0243Z" fill="url(#paint5_linear_3702_41383)"/>
<path d="M63.6523 63.0406L117.796 61.9891C117.82 61.7402 117.858 61.4993 117.913 61.2647L63.6523 63.0406Z" fill="#ABB5CA"/>
<path d="M91.3105 65.3367L117.765 64.8389C117.749 64.6905 117.741 64.5357 117.733 64.3793L91.3105 65.3367Z" fill="#ABB5CA"/>
<path d="M119.538 52.7042C119.538 52.7042 119.499 53.1318 119.389 53.8882L53.9213 56.8065C48.7166 64.8787 52.9601 74.5865 53.3045 75.3492C47.0282 65.4627 53.6009 55.5923 53.6009 55.5923L119.538 52.7042Z" fill="url(#paint6_linear_3702_41383)"/>
<path d="M18.5677 43.0747C18.5677 43.0747 18.0566 43.0986 18.0566 43.681C18.0566 44.2634 18.0566 45.2447 18.0566 45.2447L18.9874 44.8634L19.8732 45.6085V44.0831C19.8732 44.0831 19.9181 43.6348 20.2337 43.5901L18.5677 43.0747Z" fill="#DA851F"/>
<path d="M23.3499 44.5906L14.8789 42.0759V41.6945L23.3499 44.5906Z" fill="url(#paint7_linear_3702_41383)"/>
<path d="M44.0365 37.4215C42.8751 37.5236 42.0838 37.7039 41.6208 37.9544C40.5555 37.7757 39.3429 37.6879 38.0837 37.7055C38.4954 37.4901 39.1682 37.3481 40.123 37.2731C41.4606 37.1694 42.7261 37.2236 44.0365 37.4215Z" fill="#545F68"/>
<path d="M45.8467 38.2544C45.837 38.2703 45.8274 38.2879 45.8386 38.2959C45.8351 38.3017 45.8301 38.3067 45.8257 38.3111C45.8181 38.3186 45.8123 38.3243 45.8194 38.3294C45.0937 38.3677 44.4914 38.4411 44.0156 38.5464C43.8522 38.5799 43.7225 38.6102 43.6055 38.6485L43.5463 38.6118C43.3396 38.4123 42.9151 38.232 42.2503 38.0821C42.5723 37.8539 43.2099 37.6911 44.1294 37.5938C44.2495 37.5794 44.4145 37.5699 44.5459 37.5635L44.6772 37.5571C45.5359 37.7613 45.9123 38.0007 45.8467 38.2544Z" fill="#545F68"/>
<path d="M40.8215 39.266C40.9929 39.2165 41.1995 39.1655 41.4606 39.1272C41.4348 39.1261 41.4087 39.1249 41.3826 39.1235L41.3474 39.1218C41.3074 39.1197 41.267 39.1176 41.2267 39.116C40.3729 39.0713 39.5463 38.9788 38.8591 38.8368C38.8046 38.848 38.7389 38.8511 38.6733 38.8543C38.5083 38.8639 38.3881 38.8783 38.268 38.8926C37.3485 38.99 36.7429 39.1511 36.4546 39.3777C36.8038 39.4399 37.1739 39.4942 37.5968 39.5357C38.3657 39.6154 39.1971 39.6442 40.0461 39.6154C40.1679 39.4862 40.4434 39.3665 40.8215 39.266Z" fill="#545F68"/>
<path d="M45.9363 40.1117C46.8078 40.2106 47.7161 40.2425 48.6516 40.201C48.847 39.9154 48.4818 39.6601 47.5447 39.4288H47.4005C47.2035 39.4383 46.9936 39.4415 46.7838 39.4447C46.1094 39.4479 45.4221 39.4192 44.7205 39.3601L44.7224 39.3614L44.7226 39.3615C44.8497 39.4422 44.9549 39.509 45.0505 39.5931C45.1498 39.724 45.1722 39.8532 45.0521 39.9808C45.3548 40.0367 45.6672 40.0782 45.9363 40.1117Z" fill="#545F68"/>
<path d="M41.4815 38.5033C41.3373 38.3661 41.3261 38.2448 41.4142 38.1187C41.1098 38.0629 40.7862 38.015 40.4274 37.9688C39.5816 37.8842 38.7374 37.8491 37.8563 37.8794C37.7778 37.9879 37.8098 38.0996 37.9412 38.2065C38.1014 38.3772 38.4794 38.5256 39.0433 38.6581L39.2083 38.6485C39.2753 38.6527 39.3594 38.6484 39.4234 38.6451L39.4236 38.6451L39.4502 38.6437C40.256 38.6325 41.0425 38.6549 41.8002 38.7283C41.6497 38.6565 41.5327 38.5815 41.4815 38.5033Z" fill="#545F68"/>
<path d="M38.2503 38.6996C37.0889 38.8017 36.2976 38.982 35.8346 39.2325C35.1874 39.049 34.7101 38.7666 34.9824 38.4842C35.2675 38.2097 35.958 38.0358 37.0761 37.9273C37.012 38.2081 37.4237 38.4698 38.2503 38.6996Z" fill="#545F68"/>
<path d="M41.0713 40.5648C40.674 40.4484 40.3745 40.3271 40.1758 40.1994C39.9644 40.0654 39.8859 39.9234 39.9179 39.7846C38.638 39.8133 37.4381 39.7303 36.3392 39.5548C36.3104 39.8548 36.8198 40.1117 37.8434 40.3079C38.7773 40.493 39.8795 40.5792 41.0713 40.5648Z" fill="#545F68"/>
<path d="M48.4963 38.3485C49.0634 38.3916 49.6337 38.4586 50.1607 38.5432C50.1991 38.2496 49.7346 37.9991 48.6885 37.7885C47.7882 37.6018 46.7198 37.5124 45.5151 37.5204C46.3225 37.7597 46.6989 38.023 46.5916 38.2959C47.2196 38.2863 47.8507 38.3022 48.4963 38.3485Z" fill="#545F68"/>
<path d="M50.0101 38.7203C49.8659 38.8336 49.6529 38.9261 49.3181 39.0075C48.908 39.1096 48.3954 39.1942 47.7146 39.2389C47.2868 39.1479 46.771 39.0713 46.2248 39.0187C45.8451 38.982 45.4783 38.9533 45.0682 38.9421C45.568 38.8511 45.946 38.749 46.2328 38.6134C46.276 38.5951 46.3083 38.5695 46.3405 38.544L46.3511 38.5356C46.3549 38.5327 46.3587 38.5297 46.3626 38.5267C46.3709 38.5204 46.3794 38.5141 46.3882 38.5081C46.3895 38.5075 46.3908 38.5068 46.392 38.5062L46.3939 38.5051L46.3961 38.5039C46.399 38.5022 46.4018 38.5004 46.4047 38.4985C46.4182 38.4897 46.4342 38.4794 46.4731 38.4714C46.9793 38.4522 47.5335 38.4634 48.0317 38.4857C48.7446 38.5288 49.4366 38.6054 50.0101 38.7203Z" fill="#545F68"/>
<path d="M42.2263 40.5042C43.2243 40.41 43.8603 40.2473 44.2159 40.0175C43.6184 39.8867 43.1955 39.7319 42.9696 39.5659C42.912 39.5292 42.8415 39.483 42.8158 39.4447C42.2664 39.5963 41.5679 39.6984 40.6885 39.7526C40.6436 39.8595 40.6629 39.9649 40.7734 40.0797C40.9656 40.2473 41.3116 40.3989 41.8755 40.5313L41.9748 40.5265C42.0195 40.5236 42.0552 40.5197 42.0902 40.5158C42.1318 40.5112 42.1725 40.5068 42.2263 40.5042Z" fill="#545F68"/>
<path d="M48.3921 40.3765C47.9388 40.6111 47.133 40.7595 46.0453 40.8169L46.0116 40.8185C44.8246 40.8823 43.6696 40.8297 42.5707 40.6542C43.6344 40.5568 44.4033 40.3861 44.8454 40.1452C45.3837 40.2377 45.9876 40.3031 46.6092 40.3351C47.2099 40.3749 47.8074 40.3925 48.3921 40.3765Z" fill="#545F68"/>
<path d="M49.4639 40.15C50.4507 40.0494 51.1715 39.85 51.4262 39.6011C51.6473 39.3538 51.3686 39.0857 50.5948 38.8671C50.385 38.9836 50.1175 39.0873 49.717 39.1734C49.3501 39.258 48.8808 39.3234 48.3217 39.3777C49.1162 39.6106 49.5279 39.8707 49.4639 40.15Z" fill="#545F68"/>
<path d="M44.3601 39.791C44.3621 39.7924 44.3631 39.7939 44.3635 39.7955C44.3637 39.7964 44.3637 39.7975 44.3636 39.7985C44.3635 39.7994 44.3632 39.8002 44.363 39.8012C44.3618 39.8067 44.3602 39.8134 44.3745 39.8229C43.7049 39.6234 43.3829 39.3745 43.479 39.207C43.4974 39.2136 43.5158 39.2201 43.5343 39.2266L43.5639 39.237L43.5992 39.2493C43.6392 39.2632 43.6792 39.2772 43.7193 39.2915C44.1742 39.4447 44.3665 39.6123 44.3601 39.791Z" fill="#545F68"/>
<path d="M44.0109 39.0905C44.6052 39.1958 45.7201 39.2899 46.8127 39.2803C46.3177 39.1926 45.7714 39.1415 45.1515 39.1112C44.7301 39.0921 44.3649 39.0873 44.0109 39.0905Z" fill="#545F68"/>
<path d="M45.5615 38.5288C45.2988 38.6804 44.4098 38.8655 43.7738 38.915C43.8475 38.8703 43.9868 38.8224 44.1262 38.7746C44.5235 38.6645 45.0025 38.5831 45.5615 38.5288Z" fill="#545F68"/>
<path d="M42.96 38.8543C42.9424 38.7746 42.8911 38.6964 42.795 38.6118C42.6524 38.4985 42.4442 38.3868 42.1142 38.2927C42.0773 38.4969 42.4618 38.7187 42.96 38.8543Z" fill="#545F68"/>
<path d="M42.3305 38.9756C41.4478 38.982 40.602 38.9214 39.8058 38.8033C40.2031 38.8065 40.8343 38.8208 41.2924 38.8623C41.6929 38.8894 42.0389 38.9277 42.3305 38.9756Z" fill="#545F68"/>
<path d="M40.9464 39.5516C41.7778 39.4671 42.3817 39.3043 42.6236 39.1623C42.2312 39.2086 41.8819 39.2596 41.6 39.3314C41.3084 39.3953 41.105 39.4702 40.9464 39.5516Z" fill="#545F68"/>
<defs>
<linearGradient id="paint0_linear_3702_41383" x1="3.51967" y1="61.4995" x2="51.6326" y2="61.4995" gradientUnits="userSpaceOnUse">
<stop stop-color="#DC9F55"/>
<stop offset="0.447917" stop-color="#DD9E51"/>
<stop offset="0.859375" stop-color="#B56D15"/>
</linearGradient>
<linearGradient id="paint1_linear_3702_41383" x1="114.728" y1="107.446" x2="68.8045" y2="36.4528" gradientUnits="userSpaceOnUse">
<stop offset="0.00121702" stop-color="#C2D5E4"/>
<stop offset="1" stop-color="#E4E2F1"/>
</linearGradient>
<linearGradient id="paint2_linear_3702_41383" x1="14.8783" y1="45.7371" x2="34.2371" y2="45.7371" gradientUnits="userSpaceOnUse">
<stop stop-color="#D7DFFF"/>
<stop offset="1" stop-color="#CCD0D3"/>
</linearGradient>
<linearGradient id="paint3_linear_3702_41383" x1="73.9337" y1="50.3383" x2="73.9337" y2="45.1951" gradientUnits="userSpaceOnUse">
<stop stop-color="#132534"/>
<stop offset="1" stop-color="#354249"/>
</linearGradient>
<linearGradient id="paint4_linear_3702_41383" x1="10.6896" y1="39.2326" x2="113.217" y2="39.2326" gradientUnits="userSpaceOnUse">
<stop stop-color="#132534"/>
<stop offset="1" stop-color="#354249"/>
</linearGradient>
<linearGradient id="paint5_linear_3702_41383" x1="10.6896" y1="45.246" x2="36.0108" y2="45.246" gradientUnits="userSpaceOnUse">
<stop stop-color="#132534"/>
<stop offset="1" stop-color="#354249"/>
</linearGradient>
<linearGradient id="paint6_linear_3702_41383" x1="116.028" y1="101.941" x2="67.2527" y2="38.9819" gradientUnits="userSpaceOnUse">
<stop offset="0.00121702" stop-color="#C2D5E4"/>
<stop offset="0.3123" stop-color="#A8BACF"/>
<stop offset="1" stop-color="#7283A3"/>
</linearGradient>
<linearGradient id="paint7_linear_3702_41383" x1="14.8783" y1="43.1427" x2="23.3499" y2="43.1427" gradientUnits="userSpaceOnUse">
<stop offset="0.00121702" stop-color="#C2D5E4"/>
<stop offset="0.3123" stop-color="#A8BACF"/>
<stop offset="1" stop-color="#7283A3"/>
</linearGradient>
</defs>
</svg>
