<svg width="32" height="32" viewBox="0 0 32 32" fill="none" xmlns="http://www.w3.org/2000/svg">
  <path fill-rule="evenodd" clip-rule="evenodd"
    d="M2.6665 3C2.11422 3 1.6665 3.44772 1.6665 4V24C1.6665 24.5523 2.11422 25 2.6665 25H11.9998C12.7955 25 13.5585 25.3161 14.1212 25.8787C14.6838 26.4413 14.9998 27.2044 14.9998 28C14.9998 28.5523 15.4476 29 15.9998 29C16.0689 29 16.1363 28.993 16.2014 28.9797C16.6571 28.8864 16.9998 28.4832 16.9998 28C16.9998 27.2044 17.3159 26.4413 17.8785 25.8787C18.4411 25.3161 19.2042 25 19.9998 25H29.3332C29.8855 25 30.3332 24.5523 30.3332 24V4C30.3332 3.44772 29.8855 3 29.3332 3H21.3332C19.6535 3 18.0426 3.66726 16.8548 4.85499C16.5299 5.17995 16.2439 5.53659 15.9998 5.91764C15.7558 5.53659 15.4698 5.17995 15.1448 4.85499C13.9571 3.66726 12.3462 3 10.6665 3H2.6665ZM16.9998 9.33333L16.9998 24C17.8602 23.3547 18.9118 23 19.9998 23H28.3332V5H21.3332C20.1839 5 19.0817 5.45655 18.269 6.2692C17.4564 7.08186 16.9998 8.18406 16.9998 9.33333ZM14.9998 24V9.33333C14.9998 8.18406 14.5433 7.08186 13.7306 6.2692C12.918 5.45655 11.8158 5 10.6665 5H3.6665V23H11.9998C13.0879 23 14.1394 23.3547 14.9998 24Z"
    fill="#753EED" />
</svg>