<svg width="24" height="24" viewBox="0 0 24 24" fill="none" xmlns="http://www.w3.org/2000/svg">
<path fill-rule="evenodd" clip-rule="evenodd" d="M15 2C15.5523 2 16 2.44772 16 3V4H17C19.7614 4 22 6.23858 22 9V15V15.1716C22 15.9672 21.6839 16.7303 21.1213 17.2929L16.2929 22.1213C15.7303 22.6839 14.9672 23 14.1716 23H14H7C4.23858 23 2 20.7614 2 18V9C2 6.23858 4.23858 4 7 4H8V3C8 2.44772 8.44771 2 9 2C9.55228 2 10 2.44772 10 3V4H14V3C14 2.44772 14.4477 2 15 2ZM8 6C8 6.55228 8.44771 7 9 7C9.55228 7 10 6.55228 10 6H14C14 6.55228 14.4477 7 15 7C15.5523 7 16 6.55228 16 6H17C18.6569 6 20 7.34315 20 9V14H18C15.2386 14 13 16.2386 13 19V21H7C5.34315 21 4 19.6569 4 18V9C4 7.34315 5.34315 6 7 6H8ZM15 19V20.5858L19.5858 16H18C16.3431 16 15 17.3431 15 19ZM7 8C6.44771 8 6 8.44772 6 9C6 9.55228 6.44771 10 7 10H17C17.5523 10 18 9.55228 18 9C18 8.44772 17.5523 8 17 8H7Z" fill="#000429" fill-opacity="0.45"/>
</svg>
