<svg width="14" height="15" viewBox="0 0 14 15" fill="none" xmlns="http://www.w3.org/2000/svg">
<path fill-rule="evenodd" clip-rule="evenodd" d="M9 0.5C9.27614 0.5 9.5 0.723858 9.5 1V1.8608C11.75 2.10952 13.5 4.01706 13.5 6.33333V8.83824C13.5 8.87552 13.4992 8.91272 13.4975 8.94981C13.4992 8.96631 13.5 8.98306 13.5 9C13.5 9.04498 13.4941 9.08858 13.4829 9.13005C13.4176 9.68563 13.1673 10.2065 12.7678 10.606L9.93934 13.4344C9.5398 13.834 9.01896 14.0843 8.46338 14.1496C8.42191 14.1607 8.37832 14.1667 8.33333 14.1667C8.31639 14.1667 8.29965 14.1658 8.28314 14.1642C8.24605 14.1658 8.20886 14.1667 8.17157 14.1667H5C2.51472 14.1667 0.5 12.1519 0.5 9.66667V6.33333C0.5 4.01705 2.25003 2.10952 4.5 1.8608V1C4.5 0.723858 4.72386 0.5 5 0.5C5.27614 0.5 5.5 0.723858 5.5 1V1.83333H8.5V1C8.5 0.723858 8.72386 0.5 9 0.5ZM4.5 2.86878V3C4.5 3.27614 4.72386 3.5 5 3.5C5.27614 3.5 5.5 3.27614 5.5 3V2.83333H8.5V3C8.5 3.27614 8.72386 3.5 9 3.5C9.27614 3.5 9.5 3.27614 9.5 3V2.86878C11.1961 3.11139 12.5 4.5701 12.5 6.33333V8.5H12.3333C9.84805 8.5 7.83333 10.5147 7.83333 13V13.1667H5C3.067 13.1667 1.5 11.5997 1.5 9.66667V6.33333C1.5 4.5701 2.80385 3.11139 4.5 2.86878ZM9.23223 12.7273C9.11472 12.8448 8.97971 12.9408 8.83333 13.0128V13C8.83333 11.067 10.4003 9.5 12.3333 9.5H12.3461C12.2742 9.64638 12.1782 9.78138 12.0607 9.8989L9.23223 12.7273ZM3.66667 4.5C3.39052 4.5 3.16667 4.72386 3.16667 5C3.16667 5.27614 3.39052 5.5 3.66667 5.5H10.3333C10.6095 5.5 10.8333 5.27614 10.8333 5C10.8333 4.72386 10.6095 4.5 10.3333 4.5H3.66667Z" fill="#02062E"/>
</svg>
