<svg width="20" height="20" viewBox="0 0 20 20" fill="none" xmlns="http://www.w3.org/2000/svg">
<path fill-rule="evenodd" clip-rule="evenodd" d="M2 6C2 3.79086 3.79086 2 6 2H14C16.2091 2 18 3.79086 18 6V14C18 16.2091 16.2091 18 14 18H2V6ZM6 0C2.68629 0 0 2.68629 0 6V19C0 19.5523 0.447715 20 1 20H14C17.3137 20 20 17.3137 20 14V6C20 2.68629 17.3137 0 14 0H6ZM15.7071 7.70711C16.0976 7.31658 16.0976 6.68342 15.7071 6.29289C15.3166 5.90237 14.6834 5.90237 14.2929 6.29289L9 11.5858L6.70711 9.29289C6.31658 8.90237 5.68342 8.90237 5.29289 9.29289C4.90237 9.68342 4.90237 10.3166 5.29289 10.7071L8.29289 13.7071C8.68342 14.0976 9.31658 14.0976 9.70711 13.7071L15.7071 7.70711Z" fill="#000429" fill-opacity="0.45"/>
</svg>
