<svg width="20" height="20" viewBox="0 0 20 20" fill="none" xmlns="http://www.w3.org/2000/svg">
<path fill-rule="evenodd" clip-rule="evenodd" d="M5.09108 3.68859C6.62956 2.49357 8.55138 1.90128 10.4957 2.02295C12.4399 2.14461 14.2729 2.97187 15.6504 4.34936C17.0279 5.72686 17.8552 7.55984 17.9769 9.50412C18.0985 11.4484 17.5063 13.3702 16.3113 14.9087C15.1162 16.4472 13.4007 17.4965 11.4868 17.8597C9.57746 18.2219 7.60177 17.8764 5.92889 16.8881C5.69281 16.7434 5.40396 16.7015 5.13179 16.7793L2.45604 17.5438L3.22054 14.868C3.29949 14.5917 3.25436 14.3034 3.11129 14.0701C2.12332 12.3974 1.77799 10.4221 2.14016 8.5131C2.50327 6.59916 3.55259 4.88361 5.09108 3.68859ZM11.8596 19.8246C9.61131 20.2512 7.28941 19.8927 5.2796 18.8171L2.5728 19.5904C2.27273 19.6762 1.95518 19.6801 1.65307 19.6018C1.35096 19.5235 1.07528 19.3659 0.854599 19.1452C0.633917 18.9245 0.476268 18.6489 0.397985 18.3467C0.319701 18.0446 0.323633 17.7271 0.409371 17.427L1.18274 14.7202C0.107115 12.7104 -0.251325 10.3885 0.17521 8.14031C0.629145 5.74766 1.94092 3.60302 3.86421 2.1091C5.78749 0.61518 8.18999 -0.125248 10.6206 0.0268509C13.0511 0.17895 15.3426 1.21311 17.0646 2.93515C18.7867 4.65718 19.8209 6.94863 19.973 9.3792C20.1251 11.8098 19.3847 14.2123 17.8907 16.1356C16.3968 18.0589 14.2522 19.3707 11.8596 19.8246ZM9.20711 7.79267C8.81659 7.40214 8.18342 7.40214 7.7929 7.79267L4.7929 10.7927C4.40237 11.1832 4.40237 11.8164 4.7929 12.2069C5.18342 12.5974 5.81659 12.5974 6.20711 12.2069L8.5 9.91399L10.7929 12.2069C11.1834 12.5974 11.8166 12.5974 12.2071 12.2069L15.2071 9.20688C15.5976 8.81635 15.5976 8.18319 15.2071 7.79267C14.8166 7.40214 14.1834 7.40214 13.7929 7.79267L11.5 10.0856L9.20711 7.79267Z" fill="#02062E"/>
</svg>
