<svg width="24" height="24" viewBox="0 0 24 24" fill="none" xmlns="http://www.w3.org/2000/svg">
<path fill-rule="evenodd" clip-rule="evenodd" d="M11.9129 2.50045C10.0697 2.51848 8.27028 3.07245 6.73494 4.09637C5.15872 5.14755 3.9328 6.64602 3.2147 8.39925C2.4966 10.1525 2.31912 12.0804 2.70507 13.9352C3.09101 15.7901 4.02275 17.4872 5.38057 18.8085L5.38064 18.8085C9.07942 22.4084 15.0599 22.3686 18.7089 18.7196L18.711 18.7175C19.6033 17.8305 20.3097 16.7743 20.7886 15.6108C21.2491 14.4923 21.4905 13.2963 21.5003 12.0876C20.8927 12.2027 20.2674 12.1915 19.6633 12.0539C19.0105 11.9052 18.399 11.6127 17.8736 11.1978C17.3481 10.7828 16.9219 10.2558 16.6259 9.65515C16.3461 9.08712 16.1894 8.4668 16.1657 7.83482C15.5337 7.81113 14.9134 7.65447 14.3454 7.3746C13.7448 7.07866 13.2177 6.65243 12.8028 6.12697C12.3878 5.6015 12.0953 4.99006 11.9466 4.3372C11.8091 3.73327 11.7978 3.10798 11.9129 2.50045ZM5.62528 2.43245C7.53334 1.15996 9.7783 0.487056 12.0717 0.500189L12.0807 0.50024V0.500281C12.3596 0.504393 12.6342 0.570323 12.8845 0.693316C13.1349 0.81631 13.3548 0.993307 13.5285 1.21155C13.7022 1.4298 13.8254 1.68386 13.8891 1.95543C13.9527 2.227 13.9554 2.50932 13.8968 2.78203L13.8949 2.79089L13.8949 2.79088C13.8135 3.15385 13.8141 3.53041 13.8967 3.8931C13.9793 4.2558 14.1418 4.59549 14.3723 4.88742C14.6029 5.17934 14.8957 5.41614 15.2293 5.58055C15.5616 5.74423 15.926 5.83206 16.2962 5.83769C16.7905 5.8399 17.264 6.03719 17.6137 6.38685C17.9633 6.73649 18.1606 7.21001 18.1628 7.70425C18.1685 8.07453 18.2563 8.43897 18.42 8.7712C18.5844 9.10488 18.8212 9.39766 19.1131 9.62821C19.405 9.85875 19.7447 10.0212 20.1074 10.1038C20.4701 10.1864 20.8467 10.1871 21.2096 10.1057L21.2185 10.1037L21.2185 10.1037C21.4912 10.0451 21.7735 10.0478 22.0451 10.1115C22.3167 10.1752 22.5707 10.2983 22.789 10.472C23.0072 10.6457 23.1842 10.8657 23.3072 11.116C23.4302 11.3664 23.4961 11.6409 23.5003 11.9198L23.5004 11.9272C23.5115 13.4515 23.2183 14.9627 22.6381 16.3722C22.058 17.7813 21.2026 19.0605 20.122 20.1349C15.6991 24.5567 8.46789 24.6041 3.98578 20.2419C2.3421 18.6424 1.2142 16.588 0.747003 14.3427C0.279805 12.0973 0.494648 9.76353 1.36393 7.6412C2.23321 5.51887 3.71721 3.70493 5.62528 2.43245ZM15.0632 18.1252C15.7881 18.1252 16.3757 17.5375 16.3757 16.8127C16.3757 16.0878 15.7881 15.5002 15.0632 15.5002C14.3384 15.5002 13.7507 16.0878 13.7507 16.8127C13.7507 17.5375 14.3384 18.1252 15.0632 18.1252ZM9.37573 15.9377C9.37573 16.6625 8.78811 17.2502 8.06323 17.2502C7.33836 17.2502 6.75073 16.6625 6.75073 15.9377C6.75073 15.2128 7.33836 14.6252 8.06323 14.6252C8.78811 14.6252 9.37573 15.2128 9.37573 15.9377ZM7.18823 11.1252C7.91311 11.1252 8.50073 10.5375 8.50073 9.81266C8.50073 9.08779 7.91311 8.50016 7.18823 8.50016C6.46336 8.50016 5.87573 9.08779 5.87573 9.81266C5.87573 10.5375 6.46336 11.1252 7.18823 11.1252ZM14.1882 11.5627C14.1882 12.2875 13.6006 12.8752 12.8757 12.8752C12.1509 12.8752 11.5632 12.2875 11.5632 11.5627C11.5632 10.8378 12.1509 10.2502 12.8757 10.2502C13.6006 10.2502 14.1882 10.8378 14.1882 11.5627Z" fill="white"/>
</svg>
