<svg width="24" height="24" viewBox="0 0 24 24" fill="none" xmlns="http://www.w3.org/2000/svg">
<path fill-rule="evenodd" clip-rule="evenodd" d="M7 3C7 1.89543 7.89543 1 9 1H15C16.1046 1 17 1.89543 17 3H18C19.6569 3 21 4.34315 21 6V20C21 21.6569 19.6569 23 18 23H6C4.34315 23 3 21.6569 3 20V6C3 4.34315 4.34315 3 6 3H7ZM7 5H6C5.44772 5 5 5.44772 5 6V20C5 20.5523 5.44772 21 6 21H18C18.5523 21 19 20.5523 19 20V6C19 5.44772 18.5523 5 18 5H17C17 6.10457 16.1046 7 15 7H9C7.89543 7 7 6.10457 7 5ZM15 4V5H9V4V3H15V4ZM7 11C7 10.4477 7.44771 10 8 10H16C16.5523 10 17 10.4477 17 11C17 11.5523 16.5523 12 16 12L8 12C7.44772 12 7 11.5523 7 11ZM8 14C7.44771 14 7 14.4477 7 15C7 15.5523 7.44772 16 8 16H13C13.5523 16 14 15.5523 14 15C14 14.4477 13.5523 14 13 14H8Z" fill="#000429" fill-opacity="0.45"/>
</svg>
