<svg width="32" height="32" viewBox="0 0 32 32" fill="none" xmlns="http://www.w3.org/2000/svg">
<path fill-rule="evenodd" clip-rule="evenodd" d="M12 4.33325C11.4477 4.33325 11 4.78097 11 5.33325C11 5.88554 11.4477 6.33325 12 6.33325H15.9062C16.4634 6.33325 16.9838 6.61175 17.2929 7.07542L19.1679 9.88795C19.3534 10.1662 19.6656 10.3333 20 10.3333H25.3333C26.9902 10.3333 28.3333 11.6764 28.3333 13.3333V17.9999C28.3333 19.6568 26.9902 20.9999 25.3333 20.9999H24C23.8831 20.9999 23.7709 21.02 23.6667 21.0568V17.3331C23.6667 14.5717 21.4281 12.3331 18.6667 12.3331H15.2019L13.6237 9.96588C12.9437 8.94581 11.7988 8.33311 10.5728 8.33311H6.66667C4.64162 8.33311 3 9.97473 3 11.9998V13.3331V22.6664C3 25.4279 5.23858 27.6664 8 27.6664H18.6667C21.3362 27.6664 23.5171 25.5744 23.6593 22.9404C23.7656 22.9789 23.8804 22.9999 24 22.9999H25.3333C28.0948 22.9999 30.3333 20.7613 30.3333 17.9999V13.3333C30.3333 10.5718 28.0948 8.33325 25.3333 8.33325H20.5352L18.957 5.96602C18.277 4.94596 17.1321 4.33325 15.9062 4.33325H12ZM11.9596 11.0753L12.7981 12.3331H5V11.9998C5 11.0793 5.74619 10.3331 6.66667 10.3331H10.5728C11.1301 10.3331 11.6505 10.6116 11.9596 11.0753ZM5 22.6664V14.3331H14.6667H18.6667C20.3235 14.3331 21.6667 15.6763 21.6667 17.3331V22.6664C21.6667 24.3233 20.3235 25.6664 18.6667 25.6664H8C6.34315 25.6664 5 24.3233 5 22.6664Z" fill="#D6913D"/>
</svg>
