<svg width="100%" height="100" viewBox="0 0 24 24" fill="none" xmlns="http://www.w3.org/2000/svg">
<path fill-rule="evenodd" clip-rule="evenodd" d="M4 8.75V6.25H8.66667L10.3333 7.5L8.66667 8.75H4ZM3.75 4.25C3.28587 4.25 2.84075 4.43438 2.51256 4.76256C2.18438 5.09075 2 5.53587 2 6V9.75V18.75L2 18.7529C2.00136 19.2159 2.18586 19.6594 2.51321 19.9868C2.84055 20.3141 3.28414 20.4986 3.74707 20.5L3.75 20.5H20.25C20.7141 20.5 21.1592 20.3156 21.4874 19.9874C21.8156 19.6592 22 19.2141 22 18.75V8.25C22 7.78587 21.8156 7.34075 21.4874 7.01256C21.1592 6.68437 20.7141 6.5 20.25 6.5H12.3333L9.8 4.6C9.49708 4.37281 9.12865 4.25 8.75 4.25H3.75ZM12.3333 8.5L9.8 10.4C9.49708 10.6272 9.12865 10.75 8.75 10.75H4V18.5H20V8.5H12.3333Z" fill="currentColor"/>
</svg>
