<svg width="100%" height="100%" viewBox="0 0 24 24" fill="none" xmlns="http://www.w3.org/2000/svg">
<path fill-rule="evenodd" clip-rule="evenodd" d="M12 5.01508C10.3823 3.23014 7.95897 2.67977 5.83501 3.17597C3.24579 3.78086 1 5.95938 1 9.37562C1 12.3686 2.5587 14.9751 4.45952 17.017C6.36849 19.0676 8.71849 20.6551 10.5399 21.6321C11.4567 22.1239 12.5433 22.1239 13.4601 21.6321C15.2815 20.6551 17.6315 19.0676 19.5405 17.017C21.4413 14.9752 23 12.3686 23 9.37562C23 5.95938 20.7542 3.78087 18.165 3.17597C16.041 2.67977 13.6177 3.23014 12 5.01508ZM6.28999 5.12353C4.50421 5.54072 3 6.98901 3 9.37562C3 11.6564 4.19446 13.797 5.92338 15.6542C7.64414 17.5026 9.80045 18.9659 11.4853 19.8697C11.8116 20.0447 12.1884 20.0447 12.5147 19.8697C14.1996 18.9659 16.3559 17.5026 18.0766 15.6542C19.8055 13.797 21 11.6564 21 9.37562C21 6.98901 19.4958 5.54073 17.71 5.12353C15.8918 4.69876 13.8824 5.36209 12.8793 7.21425C12.7045 7.53697 12.367 7.73801 12 7.73801C11.633 7.73801 11.2955 7.53697 11.1207 7.21425C10.1176 5.36209 8.10818 4.69876 6.28999 5.12353Z" fill="currentColor"/>
</svg>
