<?xml version="1.0" encoding="UTF-8"?>
<svg xmlns="http://www.w3.org/2000/svg" xmlns:xlink="http://www.w3.org/1999/xlink" viewBox="0 0 17 16" version="1.1">
    <g id="surface1">
        <path style=" stroke:none;fill-rule:nonzero;fill:rgb(93.333333%,30.196078%,25.098039%);fill-opacity:1;"
            d="M 8.5 15.710938 C 8.382812 15.710938 8.265625 15.667969 8.171875 15.582031 L 8.148438 15.5625 C 7.425781 14.914062 6.746094 14.316406 6.085938 13.742188 C 4.324219 12.199219 2.796875 10.863281 1.738281 9.570312 C 0.550781 8.121094 0 6.769531 0 5.320312 C 0 3.984375 0.441406 2.738281 1.242188 1.804688 C 2.078125 0.828125 3.242188 0.289062 4.515625 0.289062 C 6.308594 0.289062 7.441406 1.386719 8.078125 2.308594 C 8.242188 2.550781 8.382812 2.789062 8.5 3.015625 C 8.617188 2.789062 8.757812 2.550781 8.921875 2.308594 C 9.558594 1.386719 10.691406 0.289062 12.484375 0.289062 C 13.757812 0.289062 14.921875 0.828125 15.757812 1.804688 C 16.558594 2.738281 17 3.984375 17 5.320312 C 17 6.769531 16.449219 8.121094 15.261719 9.570312 C 14.203125 10.863281 12.675781 12.199219 10.914062 13.742188 C 10.253906 14.316406 9.574219 14.914062 8.851562 15.5625 L 8.828125 15.582031 C 8.734375 15.667969 8.617188 15.710938 8.5 15.710938 Z M 8.5 15.710938 " />
    </g>
</svg>