<svg width="40" height="71" viewBox="0 0 40 71" fill="none" xmlns="http://www.w3.org/2000/svg">
<g clip-path="url(#clip0_2326_245531)">
<path d="M12.9 24.3445L25.1649 14.5432C25.3289 14.4202 25.5247 14.3448 25.7153 14.3047H26.1136C26.2969 14.3455 26.4725 14.4312 26.6218 14.5432L39.9991 25.245V25.2454L25.8537 36.5299L12.9 26.1723C12.3172 25.6955 12.3172 24.8213 12.9 24.3445Z" fill="url(#paint0_linear_2326_245531)"/>
<path d="M14.1192 33.8278L0 45.1126V22.543L28.2384 0V4.47682C28.2384 15.894 23.0464 26.702 14.1192 33.8278Z" fill="url(#paint1_linear_2326_245531)"/>
<path d="M13.3775 55.8149L0 45.1129L14.1457 33.8281L27.0993 44.1857C27.6821 44.6626 27.6821 45.5367 27.0993 46.0136L14.8344 55.8149C14.4106 56.1593 13.8013 56.1593 13.3775 55.8149Z" fill="url(#paint2_linear_2326_245531)"/>
<path d="M0 45.1129L17.3245 36.3977L14.1192 33.8281L0 45.1129Z" fill="#98683C"/>
<path d="M39.9728 47.8086V25.2656L25.8801 36.5292C16.9529 43.655 11.7344 54.4365 11.7344 65.8802V70.357L39.9728 47.8086Z" fill="url(#paint3_linear_2326_245531)"/>
<path d="M40.0003 25.2461L22.6758 33.9613L25.8546 36.5309L40.0003 25.2461Z" fill="#98683C"/>
</g>
<defs>
<linearGradient id="paint0_linear_2326_245531" x1="20.7501" y1="20.1059" x2="48.9965" y2="47.8198" gradientUnits="userSpaceOnUse">
<stop stop-color="#CF946B"/>
<stop offset="1" stop-color="#875E39"/>
</linearGradient>
<linearGradient id="paint1_linear_2326_245531" x1="-1.91915" y1="38.4919" x2="41.8981" y2="-5.03128" gradientUnits="userSpaceOnUse">
<stop stop-color="#CF946B"/>
<stop offset="1" stop-color="#875E39"/>
</linearGradient>
<linearGradient id="paint2_linear_2326_245531" x1="20.1695" y1="51.006" x2="-9.7298" y2="22.6193" gradientUnits="userSpaceOnUse">
<stop stop-color="#CF946B"/>
<stop offset="1" stop-color="#875E39"/>
</linearGradient>
<linearGradient id="paint3_linear_2326_245531" x1="43.6391" y1="29.9918" x2="-2.61522" y2="76.3441" gradientUnits="userSpaceOnUse">
<stop stop-color="#CF946B"/>
<stop offset="1" stop-color="#875E39"/>
</linearGradient>
<clipPath id="clip0_2326_245531">
<rect width="40" height="70.3576" fill="white"/>
</clipPath>
</defs>
</svg>
