<svg width="228" height="38" viewBox="0 0 228 38" fill="none" xmlns="http://www.w3.org/2000/svg">
<path d="M109.727 9.9436C109.42 10.535 108.956 10.9149 108.301 11.1028L103.756 12.4853C103.516 12.5676 103.338 12.7477 103.26 12.9905C103.218 13.1198 103.206 13.2451 103.233 13.3704C103.257 13.4957 103.315 13.6093 103.392 13.6876L106.275 17.4826C106.677 18.0152 106.829 18.6105 106.736 19.3037C106.643 19.993 106.325 20.5295 105.767 20.9368C105.201 21.348 104.593 21.5007 103.915 21.4107C103.233 21.2814 102.722 20.9486 102.35 20.3846L99.6612 16.3938L99.6225 16.3468C99.4675 16.1902 99.2467 16.104 98.9833 16.104C98.7198 16.104 98.499 16.2293 98.3944 16.4212L95.7328 20.3768C95.326 20.9446 94.7913 21.2814 94.1172 21.4068C93.4276 21.5008 92.8194 21.348 92.2615 20.9407C91.7307 20.5295 91.4091 19.989 91.2851 19.2998C91.1922 18.6144 91.3588 18.0269 91.8004 17.4826L94.7061 13.6602L94.7371 13.6054C94.8262 13.4252 94.834 13.2138 94.7603 12.9905C94.6867 12.7673 94.555 12.6028 94.3574 12.501L89.7781 11.1028H89.7665C89.0807 10.9109 88.6003 10.535 88.2942 9.94751C87.9804 9.31307 87.9184 8.67862 88.1044 8.02459C88.3214 7.36273 88.732 6.88885 89.3558 6.57554C89.9795 6.25832 90.5994 6.21133 91.2464 6.43064L95.7328 8.09117C95.8606 8.13425 95.9885 8.14208 96.1086 8.11858C96.2287 8.09509 96.341 8.03634 96.4108 7.96585C96.6277 7.81311 96.7478 7.58596 96.7478 7.32749L96.6393 2.51821C96.6083 1.79369 96.8176 1.21798 97.2863 0.744103C97.7474 0.242811 98.3053 0 98.9833 0C99.7 0 100.273 0.242814 100.746 0.751939C101.211 1.2219 101.436 1.80544 101.436 2.52604L101.327 7.33532C101.327 7.56639 101.409 7.77004 101.583 7.94235L101.633 7.98152C101.854 8.13034 102.106 8.1695 102.354 8.08334L106.825 6.43064C107.445 6.21524 108.045 6.26223 108.665 6.57554C109.285 6.88885 109.672 7.35882 109.866 8.02851C110.083 8.69037 110.036 9.31699 109.727 9.9436Z" fill="#3E74ED"/>
<path fill-rule="evenodd" clip-rule="evenodd" d="M47.8258 2.59606C47.3769 2.16837 46.7881 1.94922 46.0706 1.94922C45.3532 1.94922 44.8013 2.16483 44.3156 2.59606C43.8704 3.02729 43.6422 3.59282 43.6422 4.28208V13.8398C42.8254 13.0409 41.8651 12.387 40.7833 11.8886C39.3888 11.2171 37.8508 10.8777 36.2135 10.8777C34.1861 10.8777 32.3391 11.3797 30.7238 12.3694C29.1196 13.3237 27.8244 14.6598 26.8788 16.3458C25.9626 17.993 25.499 19.8911 25.499 21.9836C25.499 24.0761 26.0068 25.9954 27.0076 27.6779C28.0304 29.3498 29.4213 30.7 31.1396 31.6862C32.8873 32.6441 34.8668 33.1283 37.0193 33.1283C39.1717 33.1283 41.1402 32.6441 42.8659 31.6827C44.5805 30.7 45.9566 29.3498 46.9537 27.6779C47.9803 25.999 48.4991 24.0832 48.4991 21.9836V4.28208C48.4991 3.59282 48.271 3.02729 47.8258 2.59606ZM37.0193 28.9292C35.7462 28.9292 34.5725 28.6323 33.5385 28.0491C32.523 27.4411 31.6952 26.5963 31.0807 25.5465C30.492 24.4861 30.194 23.2879 30.194 21.9836C30.194 20.6793 30.492 19.4599 31.077 18.4348C31.6878 17.4062 32.5157 16.5862 33.5349 15.9959C34.5725 15.388 35.7462 15.0804 37.0193 15.0804C38.2924 15.0804 39.4918 15.3879 40.5074 15.9994C41.5266 16.5862 42.336 17.4062 42.9174 18.4277C43.5061 19.4528 43.8041 20.651 43.8041 21.9836C43.8041 23.3162 43.5061 24.4932 42.9174 25.5465C42.3323 26.5963 41.5192 27.4376 40.5074 28.0455C39.4955 28.6323 38.3218 28.9292 37.0193 28.9292Z" fill="currentColor"/>
<path d="M5.76738 17.9952L5.76915 17.9965C5.70461 18.0957 5.64212 18.197 5.58168 18.3003C4.99297 19.3607 4.69493 20.5589 4.69493 21.8632C4.69493 23.1675 4.99297 24.3869 5.578 25.412C6.18879 26.4405 7.01665 27.2606 8.03585 27.8509C9.07345 28.4588 10.2472 28.7663 11.5203 28.7663C12.7933 28.7663 13.9928 28.4588 15.0083 27.8473C16.0275 27.2606 16.837 26.4405 17.4184 25.419C18.0071 24.394 18.3051 23.1957 18.3051 21.8632C18.3051 21.6634 18.2984 21.4671 18.285 21.2742V14.9763L10.925 14.9763C9.71829 14.9763 8.74002 14.0232 8.74002 12.8474C8.74002 11.6716 9.71829 10.7184 10.925 10.7184L20.2401 10.7184C21.7644 10.7184 23.0001 11.9224 23.0001 13.4076V30.7956C23.0001 31.4848 22.7719 32.0503 22.3267 32.4816C21.8778 32.9093 21.2891 33.1284 20.5716 33.1284C19.8542 33.1284 19.3022 32.9128 18.8166 32.4816C18.3713 32.0503 18.1432 31.4848 18.1432 30.7956V30.007C17.3264 30.8058 16.3661 31.4597 15.2843 31.9581C13.8898 32.6297 12.3518 32.969 10.7145 32.969C8.68712 32.969 6.84003 32.4671 5.22479 31.4774C3.62056 30.5231 2.3254 29.187 1.37978 27.5009C0.463609 25.8538 0 23.9557 0 21.8632C0 19.7707 0.507764 17.8514 1.50857 16.1689C1.66472 15.9136 1.82945 15.6659 2.00261 15.4258L1.99759 15.4223C2.73456 14.4133 4.17136 14.1775 5.20696 14.8955C6.23318 15.6071 6.48018 16.9884 5.76738 17.9952Z" fill="currentColor"/>
<path d="M82.5021 30.7706V19.5496C82.5021 17.7026 82.1523 16.1022 81.46 14.7982C80.7932 13.4621 79.8312 12.4332 78.596 11.7473C77.3681 11.065 75.947 10.7184 74.3729 10.7184C72.5875 10.7184 70.9696 11.1043 69.5559 11.8652C68.7178 12.3261 67.9854 12.8977 67.3733 13.5729C66.7976 12.8191 66.0943 12.2046 65.2708 11.7473C64.0429 11.065 62.6801 10.7184 61.0477 10.7184C59.4154 10.7184 57.9396 11.1079 56.6571 11.8724C56.3182 12.0724 56.0012 12.2975 55.7024 12.5368C55.5967 12.176 55.4109 11.8688 55.1449 11.6116C54.704 11.1757 54.0918 10.9542 53.4068 10.9542C52.7218 10.9542 52.1424 11.1722 51.6724 11.608C51.2278 12.0403 51.0019 12.6119 51.0019 13.3121L51.0019 30.7706C51.0019 31.4387 51.2242 32.0103 51.6797 32.4854C52.1424 32.9105 52.6963 33.1284 53.4068 33.1284C54.1173 33.1284 54.704 32.9105 55.1522 32.4675C55.5894 32.0103 55.8117 31.4387 55.8117 30.7706L55.8117 19.7068C55.8117 18.3242 56.2234 17.2239 57.0724 16.3451C57.9141 15.4698 59.0036 15.0447 60.2498 15.0447C61.4959 15.0447 62.4688 15.4091 63.234 16.1593C63.9846 16.8702 64.3672 18.0134 64.3672 19.5496V30.7706C64.3672 31.4387 64.5895 32.0103 65.0449 32.4854C65.5077 32.9105 66.0615 33.1284 66.7721 33.1284C67.4826 33.1284 68.0692 32.9105 68.5174 32.4675C68.9547 32.0103 69.1769 31.4387 69.1769 30.7706V19.7068C69.1769 18.3242 69.5777 17.2239 70.3976 16.3451C71.2393 15.4698 72.3288 15.0447 73.5749 15.0447C74.8211 15.0447 75.794 15.4091 76.5592 16.1593C77.3134 16.8738 77.6923 18.0134 77.6923 19.5496V30.7706C77.6923 31.4387 77.9146 32.0103 78.3701 32.4854C78.8328 32.9105 79.3867 33.1284 80.0972 33.1284C80.8078 33.1284 81.3944 32.9105 81.8426 32.4675C82.2798 32.0103 82.5021 31.4387 82.5021 30.7706Z" fill="currentColor"/>
<path d="M189.859 8.2832V16.877H190.927V8.2832H189.859Z" fill="currentColor"/>
<path d="M205.034 9.44644V8.37074H206.102V9.44644H205.034Z" fill="currentColor"/>
<path d="M205.034 16.8769V10.5631H206.102V16.8769H205.034Z" fill="currentColor"/>
<path d="M222.912 16.5557C223.408 16.883 224.042 17.0467 224.814 17.0467C225.622 17.0467 226.256 16.8733 226.716 16.5264C227.176 16.1757 227.406 15.6963 227.406 15.0883C227.406 14.7609 227.336 14.4861 227.196 14.264C227.056 14.0379 226.82 13.843 226.488 13.6794C226.16 13.5118 225.71 13.3578 225.138 13.2175C224.63 13.0928 224.242 12.9817 223.974 12.8843C223.71 12.7868 223.528 12.6836 223.428 12.5744C223.332 12.4653 223.284 12.3347 223.284 12.1827C223.284 11.9099 223.414 11.6936 223.674 11.5338C223.938 11.374 224.28 11.3019 224.7 11.3175C225.144 11.3292 225.506 11.4325 225.786 11.6274C226.07 11.8222 226.238 12.0892 226.29 12.4283L227.382 12.2354C227.338 11.8651 227.196 11.5416 226.956 11.2649C226.72 10.9843 226.408 10.768 226.02 10.616C225.632 10.464 225.192 10.388 224.7 10.388C224.204 10.388 223.768 10.464 223.392 10.616C223.02 10.768 222.73 10.9843 222.522 11.2649C222.314 11.5416 222.21 11.8651 222.21 12.2354C222.21 12.5355 222.28 12.7907 222.42 13.0012C222.56 13.2117 222.794 13.3968 223.122 13.5566C223.45 13.7164 223.9 13.8703 224.472 14.0184C225 14.1548 225.394 14.2718 225.654 14.3692C225.918 14.4666 226.092 14.5719 226.176 14.6849C226.26 14.794 226.302 14.9382 226.302 15.1175C226.302 15.4254 226.176 15.669 225.924 15.8483C225.672 16.0276 225.324 16.1172 224.88 16.1172C224.412 16.1172 224.02 16.0178 223.704 15.819C223.388 15.6164 223.186 15.3436 223.098 15.0006L222.006 15.1701C222.118 15.7625 222.42 16.2244 222.912 16.5557Z" fill="currentColor"/>
<path d="M119.217 30.5181V25.0636H118.119V24.2042H119.217V23.8593C119.217 23.6956 119.225 23.53 119.241 23.3624C119.257 23.1909 119.293 23.0253 119.349 22.8655C119.405 22.7018 119.497 22.5517 119.625 22.4153C119.773 22.2555 119.935 22.1425 120.111 22.0762C120.287 22.0061 120.465 21.9632 120.645 21.9476C120.829 21.932 121.003 21.9242 121.167 21.9242H121.989V22.7895H121.227C120.911 22.7895 120.675 22.8655 120.519 23.0175C120.363 23.1656 120.285 23.3916 120.285 23.6956V24.2042H121.989V25.0636H120.285V30.5181H119.217Z" fill="currentColor"/>
<path d="M195.917 21.9242V30.5181H196.985V21.9242H195.917Z" fill="currentColor"/>
<path fill-rule="evenodd" clip-rule="evenodd" d="M199.928 30.2844C200.404 30.5572 200.96 30.6936 201.596 30.6936C202.224 30.6936 202.79 30.5416 203.294 30.2376C203.802 29.9297 204.182 29.4971 204.434 28.9398L203.408 28.5948C203.228 28.9534 202.98 29.2282 202.664 29.4191C202.348 29.6101 201.976 29.7056 201.548 29.7056C200.912 29.7056 200.422 29.501 200.078 29.0918C199.781 28.7378 199.612 28.2584 199.572 27.6536H204.542C204.574 26.9053 204.474 26.2603 204.242 25.7185C204.014 25.1768 203.67 24.7598 203.21 24.4675C202.754 24.1751 202.2 24.029 201.548 24.029C200.92 24.029 200.372 24.1674 199.904 24.4441C199.44 24.7169 199.079 25.1066 198.819 25.6133C198.559 26.1161 198.429 26.7124 198.429 27.4022C198.429 28.0609 198.561 28.6377 198.825 29.1327C199.089 29.6238 199.456 30.0077 199.928 30.2844ZM203.435 26.8176C203.376 26.2698 203.223 25.845 202.976 25.5431C202.664 25.1573 202.2 24.9644 201.584 24.9644C200.924 24.9644 200.422 25.1709 200.078 25.5841C199.82 25.8942 199.659 26.3054 199.595 26.8176H203.435Z" fill="currentColor"/>
<path d="M192.929 23.0875V22.0118H193.997V23.0875H192.929Z" fill="currentColor"/>
<path d="M192.929 30.5179V24.2041H193.997V30.5179H192.929Z" fill="currentColor"/>
<path fill-rule="evenodd" clip-rule="evenodd" d="M187.055 30.2552C187.471 30.5475 187.983 30.6936 188.591 30.6936C189.195 30.6936 189.713 30.5475 190.145 30.2552C190.581 29.959 190.915 29.5595 191.147 29.0567C191.379 28.5539 191.494 27.9869 191.494 27.3555C191.494 26.7241 191.379 26.157 191.147 25.6542C190.915 25.1515 190.581 24.7559 190.145 24.4675C189.713 24.1752 189.197 24.029 188.597 24.029C187.989 24.029 187.475 24.1732 187.055 24.4616C186.92 24.5548 186.796 24.6592 186.683 24.7748V22.0998H185.609V30.5182H186.563V29.8031C186.707 29.9738 186.871 30.1245 187.055 30.2552ZM186.563 27.3555C186.563 26.8878 186.631 26.4766 186.767 26.1219C186.903 25.7634 187.109 25.4847 187.385 25.2859C187.661 25.0833 188.009 24.9819 188.429 24.9819C188.869 24.9819 189.231 25.0872 189.515 25.2976C189.803 25.5081 190.015 25.7926 190.151 26.1512C190.291 26.5097 190.361 26.9112 190.361 27.3555C190.361 27.8037 190.291 28.209 190.151 28.5715C190.011 28.93 189.801 29.2146 189.521 29.425C189.241 29.6355 188.887 29.7407 188.459 29.7407C188.023 29.7407 187.665 29.6394 187.385 29.4367C187.105 29.2301 186.897 28.9476 186.761 28.589C186.629 28.2266 186.563 27.8154 186.563 27.3555Z" fill="currentColor"/>
<path fill-rule="evenodd" clip-rule="evenodd" d="M181.17 30.6936C180.526 30.6936 179.97 30.5514 179.502 30.2668C179.038 29.9823 178.68 29.5887 178.428 29.0859C178.176 28.5832 178.05 28.0063 178.05 27.3555C178.05 26.6929 178.178 26.1122 178.434 25.6133C178.69 25.1144 179.052 24.7266 179.52 24.4499C179.988 24.1693 180.538 24.029 181.17 24.029C181.818 24.029 182.376 24.1713 182.844 24.4558C183.312 24.7364 183.67 25.1281 183.918 25.6308C184.17 26.1297 184.296 26.7046 184.296 27.3555C184.296 28.0141 184.17 28.5948 183.918 29.0976C183.666 29.5965 183.306 29.9882 182.838 30.2727C182.37 30.5533 181.814 30.6936 181.17 30.6936ZM181.17 29.7056C181.842 29.7056 182.342 29.4874 182.67 29.0508C182.998 28.6143 183.162 28.0492 183.162 27.3555C183.162 26.6422 182.996 26.0751 182.664 25.6542C182.332 25.2294 181.834 25.017 181.17 25.017C180.718 25.017 180.346 25.1164 180.054 25.3151C179.762 25.5139 179.544 25.7887 179.4 26.1395C179.256 26.4902 179.184 26.8956 179.184 27.3555C179.184 28.0648 179.352 28.6338 179.688 29.0625C180.024 29.4913 180.518 29.7056 181.17 29.7056Z" fill="currentColor"/>
<path d="M175.836 26.4783L175.83 30.518H176.898L176.904 26.2503C176.904 25.576 176.71 25.0401 176.322 24.6426C175.934 24.2411 175.402 24.0404 174.726 24.0404C174.294 24.0404 173.906 24.134 173.562 24.321C173.228 24.5026 172.962 24.7558 172.764 25.0806C172.588 24.7456 172.338 24.4885 172.014 24.3093C171.69 24.1301 171.31 24.0404 170.874 24.0404C170.438 24.0404 170.048 24.134 169.704 24.321C169.437 24.4635 169.213 24.6484 169.032 24.8758V24.2041H168.078V30.518H169.152V26.5075C169.152 26.0437 169.282 25.6715 169.542 25.3909C169.802 25.1103 170.142 24.97 170.562 24.97C170.986 24.97 171.326 25.1083 171.582 25.385C171.838 25.6579 171.966 26.0359 171.966 26.5192L171.96 30.518H173.022L173.028 26.5074C173.028 26.1527 173.096 25.8625 173.232 25.6364C173.368 25.4065 173.544 25.2389 173.76 25.1336C173.976 25.0245 174.204 24.97 174.444 24.97C174.856 24.97 175.19 25.1044 175.446 25.3733C175.706 25.6384 175.836 26.0067 175.836 26.4783Z" fill="currentColor"/>
<path fill-rule="evenodd" clip-rule="evenodd" d="M163.005 30.6937C162.525 30.6937 162.077 30.6255 161.661 30.489C161.245 30.3526 160.897 30.1383 160.617 29.846C160.401 29.6121 160.239 29.3549 160.131 29.0743C160.027 28.7898 159.969 28.4897 159.957 28.174C159.957 27.8661 160.003 27.566 160.095 27.2737C160.187 26.9775 160.333 26.7144 160.533 26.4844C160.637 26.3597 160.753 26.2545 160.881 26.1687C161.013 26.0791 161.145 26.0031 161.277 25.9407C161.001 25.6523 160.789 25.3815 160.641 25.1281C160.497 24.8748 160.425 24.5688 160.425 24.2103C160.425 23.7543 160.545 23.3431 160.785 22.9767C161.029 22.6065 161.361 22.3356 161.781 22.1641C161.985 22.0784 162.193 22.0199 162.405 21.9887C162.621 21.9537 162.831 21.9361 163.035 21.9361C163.379 21.9361 163.713 21.9829 164.037 22.0764C164.361 22.17 164.637 22.322 164.865 22.5324C165.017 22.6571 165.147 22.8014 165.255 22.965C165.363 23.1248 165.447 23.2924 165.507 23.4678L164.463 23.7309C164.387 23.5321 164.261 23.3645 164.085 23.2281C163.945 23.1112 163.781 23.0313 163.593 22.9884C163.409 22.9456 163.223 22.9241 163.035 22.9241C162.723 22.9241 162.441 22.9826 162.189 23.0995C161.965 23.2047 161.797 23.3528 161.685 23.5438C161.573 23.7309 161.517 23.953 161.517 24.2103C161.517 24.4324 161.555 24.6156 161.631 24.7598C161.711 24.9001 161.821 25.0502 161.961 25.21C162.045 25.2957 162.139 25.3873 162.243 25.4847C162.351 25.5783 162.461 25.6757 162.573 25.777L165.117 28.0804C165.129 27.983 165.137 27.8836 165.141 27.7823C165.145 27.6809 165.147 27.5835 165.147 27.49L165.141 26.3266H166.119V27.6946C166.119 27.9713 166.109 28.2071 166.089 28.402C166.073 28.5968 166.045 28.7586 166.005 28.8872L167.103 29.8752L166.407 30.6001L165.495 29.7583C165.339 29.9298 165.153 30.0798 164.937 30.2084C164.721 30.337 164.505 30.4345 164.289 30.5007C164.085 30.5748 163.875 30.6255 163.659 30.6527C163.443 30.68 163.225 30.6937 163.005 30.6937ZM163.029 29.694C163.225 29.694 163.403 29.6823 163.563 29.6589C163.723 29.6355 163.875 29.5907 164.019 29.5244C164.211 29.4348 164.359 29.349 164.463 29.2672C164.567 29.1854 164.653 29.1094 164.721 29.0392L162.087 26.689C161.943 26.7358 161.807 26.7982 161.679 26.8761C161.555 26.9541 161.447 27.0457 161.355 27.1509C161.251 27.2756 161.173 27.4218 161.121 27.5894C161.073 27.7569 161.049 27.9343 161.049 28.1214C161.053 28.3201 161.087 28.5033 161.151 28.6709C161.215 28.8385 161.305 28.9885 161.421 29.121C161.597 29.3198 161.835 29.466 162.135 29.5595C162.435 29.6491 162.733 29.694 163.029 29.694Z" fill="currentColor"/>
<path fill-rule="evenodd" clip-rule="evenodd" d="M154.443 30.2552C154.859 30.5475 155.371 30.6936 155.979 30.6936C156.583 30.6936 157.101 30.5475 157.533 30.2552C157.969 29.959 158.302 29.5595 158.534 29.0567C158.766 28.5539 158.882 27.9869 158.882 27.3555C158.882 26.7241 158.766 26.157 158.534 25.6542C158.302 25.1515 157.969 24.7559 157.533 24.4675C157.101 24.1752 156.585 24.029 155.985 24.029C155.377 24.029 154.863 24.1732 154.443 24.4616C154.308 24.5548 154.184 24.6592 154.071 24.7748V22.0998H152.997V30.5182H153.951V29.8031C154.095 29.9738 154.259 30.1245 154.443 30.2552ZM153.951 27.3555C153.951 26.8878 154.019 26.4766 154.155 26.1219C154.291 25.7634 154.497 25.4847 154.773 25.2859C155.049 25.0833 155.397 24.9819 155.817 24.9819C156.257 24.9819 156.619 25.0872 156.903 25.2976C157.191 25.5081 157.403 25.7926 157.539 26.1512C157.679 26.5097 157.749 26.9112 157.749 27.3555C157.749 27.8037 157.679 28.209 157.539 28.5715C157.399 28.93 157.189 29.2146 156.909 29.425C156.629 29.6355 156.275 29.7407 155.847 29.7407C155.411 29.7407 155.053 29.6394 154.773 29.4367C154.493 29.2301 154.285 28.9476 154.149 28.589C154.017 28.2266 153.951 27.8154 153.951 27.3555Z" fill="currentColor"/>
<path fill-rule="evenodd" clip-rule="evenodd" d="M148.723 30.6936C148.087 30.6936 147.532 30.5572 147.056 30.2844C146.584 30.0077 146.216 29.6238 145.952 29.1327C145.688 28.6377 145.556 28.0609 145.556 27.4022C145.556 26.7124 145.686 26.1161 145.946 25.6133C146.206 25.1066 146.568 24.7169 147.032 24.4441C147.5 24.1674 148.047 24.029 148.675 24.029C149.327 24.029 149.881 24.1751 150.337 24.4675C150.797 24.7598 151.141 25.1768 151.369 25.7185C151.601 26.2603 151.701 26.9053 151.669 27.6536L146.699 27.6536C146.739 28.2584 146.908 28.7378 147.206 29.0918C147.55 29.501 148.039 29.7056 148.675 29.7056C149.103 29.7056 149.475 29.6101 149.791 29.4191C150.107 29.2282 150.355 28.9534 150.535 28.5948L151.561 28.9398C151.309 29.4971 150.929 29.9297 150.421 30.2376C149.917 30.5416 149.351 30.6936 148.723 30.6936ZM150.103 25.5431C150.35 25.845 150.503 26.2698 150.562 26.8176H146.722C146.786 26.3054 146.947 25.8942 147.206 25.5841C147.55 25.1709 148.051 24.9644 148.711 24.9644C149.327 24.9644 149.791 25.1573 150.103 25.5431Z" fill="currentColor"/>
<path d="M136.197 24.1984L138.176 30.5181H139.064L140.63 25.7184L142.196 30.5181H143.084L145.064 24.2042H144.008L142.556 28.8227L141.104 24.2042H140.162L138.704 28.8227L137.259 24.2042L136.197 24.1984Z" fill="currentColor"/>
<path d="M129.919 30.518V24.2041H130.873V25.2052C130.916 25.1319 130.962 25.0613 131.011 24.9934C131.135 24.8297 131.273 24.6952 131.425 24.59C131.593 24.4575 131.783 24.3561 131.995 24.286C132.207 24.2158 132.423 24.1749 132.643 24.1632C132.863 24.1476 133.069 24.1613 133.261 24.2041V25.1804C133.037 25.122 132.791 25.1064 132.523 25.1337C132.255 25.161 132.007 25.2564 131.779 25.4201C131.571 25.5643 131.409 25.7397 131.293 25.9463C131.181 26.1529 131.103 26.377 131.059 26.6186C131.015 26.8563 130.993 27.0999 130.993 27.3494V30.518H129.919Z" fill="currentColor"/>
<path fill-rule="evenodd" clip-rule="evenodd" d="M123.805 30.2668C124.273 30.5514 124.829 30.6936 125.473 30.6936C126.117 30.6936 126.673 30.5533 127.141 30.2727C127.609 29.9882 127.969 29.5965 128.221 29.0976C128.473 28.5948 128.599 28.0141 128.599 27.3555C128.599 26.7046 128.473 26.1297 128.221 25.6308C127.973 25.1281 127.615 24.7364 127.147 24.4558C126.679 24.1713 126.121 24.029 125.473 24.029C124.841 24.029 124.291 24.1693 123.823 24.4499C123.355 24.7266 122.993 25.1144 122.737 25.6133C122.481 26.1122 122.353 26.6929 122.353 27.3555C122.353 28.0063 122.479 28.5832 122.731 29.0859C122.983 29.5887 123.341 29.9823 123.805 30.2668ZM126.973 29.0508C126.645 29.4874 126.145 29.7056 125.473 29.7056C124.821 29.7056 124.327 29.4913 123.991 29.0625C123.655 28.6338 123.487 28.0648 123.487 27.3555C123.487 26.8956 123.559 26.4902 123.703 26.1395C123.847 25.7887 124.065 25.5139 124.357 25.3151C124.649 25.1164 125.021 25.017 125.473 25.017C126.137 25.017 126.635 25.2294 126.967 25.6542C127.299 26.0751 127.465 26.6422 127.465 27.3555C127.465 28.0492 127.301 28.6143 126.973 29.0508Z" fill="currentColor"/>
<path d="M219.724 16.8769V13.7142C219.724 13.4141 219.696 13.1256 219.64 12.8489C219.588 12.5722 219.494 12.3247 219.358 12.1065C219.226 11.8843 219.046 11.7089 218.818 11.5803C218.594 11.4517 218.31 11.3874 217.966 11.3874C217.698 11.3874 217.454 11.4322 217.234 11.5219C217.018 11.6076 216.832 11.7401 216.676 11.9194C216.52 12.0987 216.398 12.3247 216.31 12.5975C216.226 12.8665 216.184 13.1841 216.184 13.5505V16.8769H215.104V10.5631H216.064V11.377C216.258 11.1222 216.494 10.9152 216.772 10.756C217.184 10.5183 217.668 10.3994 218.224 10.3994C218.644 10.3994 219.002 10.4637 219.298 10.5923C219.593 10.7209 219.839 10.8924 220.035 11.1068C220.231 11.3172 220.385 11.555 220.497 11.82C220.609 12.0811 220.687 12.3481 220.731 12.6209C220.779 12.8899 220.803 13.1451 220.803 13.3868V16.8769H219.724Z" fill="currentColor"/>
<path fill-rule="evenodd" clip-rule="evenodd" d="M208.997 16.6258C209.465 16.9103 210.021 17.0526 210.665 17.0526C211.309 17.0526 211.865 16.9123 212.333 16.6317C212.801 16.3472 213.161 15.9555 213.413 15.4566C213.665 14.9538 213.791 14.3731 213.791 13.7144C213.791 13.0636 213.665 12.4887 213.413 11.9898C213.165 11.487 212.807 11.0954 212.339 10.8147C211.871 10.5302 211.313 10.388 210.665 10.388C210.033 10.388 209.483 10.5283 209.015 10.8089C208.547 11.0856 208.185 11.4734 207.929 11.9723C207.673 12.4711 207.545 13.0519 207.545 13.7144C207.545 14.3653 207.671 14.9421 207.923 15.4449C208.175 15.9477 208.533 16.3413 208.997 16.6258ZM212.165 15.4098C211.837 15.8463 211.337 16.0646 210.665 16.0646C210.013 16.0646 209.519 15.8502 209.183 15.4215C208.847 14.9928 208.679 14.4238 208.679 13.7144C208.679 13.2545 208.751 12.8492 208.895 12.4984C209.039 12.1477 209.257 11.8729 209.549 11.6741C209.841 11.4754 210.213 11.376 210.665 11.376C211.329 11.376 211.827 11.5884 212.159 12.0132C212.491 12.4341 212.657 13.0012 212.657 13.7144C212.657 14.4082 212.493 14.9733 212.165 15.4098Z" fill="currentColor"/>
<path d="M202.458 16.9648C202.834 16.9804 203.214 16.9511 203.598 16.8771V15.9826C203.154 16.0489 202.774 16.0606 202.458 16.0177C202.146 15.9748 201.918 15.8287 201.774 15.5792C201.698 15.4467 201.656 15.2889 201.648 15.1057C201.644 14.9225 201.642 14.7023 201.642 14.4451V11.4226H203.598V10.5632H201.642V8.8094H200.574V10.5632L199.261 10.5632V11.4226L200.574 11.4226V14.4919C200.574 14.8153 200.578 15.1057 200.586 15.3629C200.598 15.6163 200.668 15.8677 200.796 16.1171C200.948 16.4016 201.17 16.6121 201.462 16.7485C201.754 16.881 202.086 16.9531 202.458 16.9648Z" fill="currentColor"/>
<path d="M195.188 17.0406C194.772 17.0406 194.414 16.9763 194.114 16.8477C193.818 16.7191 193.572 16.5476 193.376 16.3332C193.18 16.1188 193.026 15.8811 192.914 15.62C192.802 15.3588 192.722 15.0919 192.674 14.8191C192.63 14.5462 192.608 14.2909 192.608 14.0532V10.5631H193.688V13.7258C193.688 14.022 193.716 14.3085 193.772 14.5852C193.828 14.8619 193.922 15.1114 194.054 15.3335C194.19 15.5557 194.37 15.7311 194.594 15.8597C194.822 15.9883 195.106 16.0526 195.446 16.0526C195.714 16.0526 195.958 16.0078 196.178 15.9181C196.398 15.8285 196.586 15.696 196.742 15.5206C196.898 15.3413 197.018 15.1153 197.102 14.8424C197.186 14.5696 197.228 14.252 197.228 13.8895V10.5631H198.302V16.8769H197.348V16.0591C197.154 16.3168 196.916 16.5271 196.634 16.6898C196.226 16.9237 195.744 17.0406 195.188 17.0406Z" fill="currentColor"/>
<path fill-rule="evenodd" clip-rule="evenodd" d="M185.295 17.0526C184.651 17.0526 184.095 16.9103 183.627 16.6258C183.163 16.3413 182.805 15.9477 182.553 15.4449C182.301 14.9421 182.175 14.3653 182.175 13.7144C182.175 13.0519 182.303 12.4711 182.559 11.9723C182.815 11.4734 183.177 11.0856 183.645 10.8089C184.113 10.5283 184.663 10.388 185.295 10.388C185.943 10.388 186.501 10.5302 186.969 10.8147C187.437 11.0954 187.795 11.487 188.043 11.9898C188.295 12.4887 188.421 13.0636 188.421 13.7144C188.421 14.3731 188.295 14.9538 188.043 15.4566C187.791 15.9555 187.431 16.3472 186.963 16.6317C186.495 16.9123 185.939 17.0526 185.295 17.0526ZM185.295 16.0646C185.967 16.0646 186.467 15.8463 186.795 15.4098C187.123 14.9733 187.287 14.4082 187.287 13.7144C187.287 13.0012 187.121 12.4341 186.789 12.0132C186.457 11.5884 185.959 11.376 185.295 11.376C184.843 11.376 184.471 11.4754 184.179 11.6741C183.887 11.8729 183.669 12.1477 183.525 12.4984C183.381 12.8492 183.309 13.2545 183.309 13.7144C183.309 14.4238 183.477 14.9928 183.813 15.4215C184.149 15.8502 184.643 16.0646 185.295 16.0646Z" fill="currentColor"/>
<path d="M176.718 16.5557C177.214 16.883 177.848 17.0467 178.62 17.0467C179.428 17.0467 180.062 16.8733 180.522 16.5264C180.982 16.1757 181.212 15.6963 181.212 15.0883C181.212 14.7609 181.142 14.4861 181.002 14.264C180.862 14.0379 180.626 13.843 180.294 13.6794C179.966 13.5118 179.516 13.3578 178.944 13.2175C178.436 13.0928 178.048 12.9817 177.78 12.8843C177.516 12.7868 177.334 12.6836 177.234 12.5744C177.138 12.4653 177.09 12.3347 177.09 12.1827C177.09 11.9099 177.22 11.6936 177.48 11.5338C177.744 11.374 178.086 11.3019 178.506 11.3175C178.95 11.3292 179.312 11.4325 179.592 11.6274C179.876 11.8222 180.044 12.0892 180.096 12.4283L181.188 12.2354C181.144 11.8651 181.002 11.5416 180.762 11.2649C180.526 10.9843 180.214 10.768 179.826 10.616C179.438 10.464 178.998 10.388 178.506 10.388C178.01 10.388 177.574 10.464 177.198 10.616C176.826 10.768 176.536 10.9843 176.328 11.2649C176.12 11.5416 176.016 11.8651 176.016 12.2354C176.016 12.5355 176.086 12.7907 176.226 13.0012C176.366 13.2117 176.6 13.3968 176.928 13.5566C177.256 13.7164 177.706 13.8703 178.278 14.0184C178.806 14.1548 179.2 14.2718 179.46 14.3692C179.724 14.4666 179.898 14.5719 179.982 14.6849C180.066 14.794 180.108 14.9382 180.108 15.1175C180.108 15.4254 179.982 15.669 179.73 15.8483C179.478 16.0276 179.13 16.1172 178.686 16.1172C178.218 16.1172 177.826 16.0178 177.51 15.819C177.194 15.6164 176.992 15.3436 176.904 15.0006L175.812 15.1701C175.924 15.7625 176.226 16.2244 176.718 16.5557Z" fill="currentColor"/>
<path fill-rule="evenodd" clip-rule="evenodd" d="M169.488 17.0526C168.852 17.0526 168.296 16.9162 167.82 16.6434C167.348 16.3666 166.98 15.9827 166.716 15.4917C166.452 14.9967 166.32 14.4199 166.32 13.7612C166.32 13.0714 166.45 12.475 166.71 11.9723C166.97 11.4656 167.332 11.0759 167.796 10.803C168.264 10.5263 168.812 10.388 169.44 10.388C170.092 10.388 170.646 10.5341 171.102 10.8264C171.562 11.1187 171.906 11.5358 172.134 12.0775C172.366 12.6193 172.466 13.2643 172.434 14.0126L167.464 14.0126C167.504 14.6174 167.673 15.0968 167.97 15.4507C168.314 15.86 168.804 16.0646 169.44 16.0646C169.868 16.0646 170.24 15.9691 170.556 15.7781C170.872 15.5871 171.12 15.3124 171.3 14.9538L172.326 15.2987C172.074 15.8561 171.694 16.2887 171.186 16.5966C170.682 16.9006 170.116 17.0526 169.488 17.0526ZM171.327 13.1766C171.268 12.6288 171.115 12.204 170.868 11.9021C170.556 11.5163 170.092 11.3234 169.476 11.3234C168.816 11.3234 168.314 11.5299 167.97 11.943C167.712 12.2532 167.551 12.6644 167.486 13.1766L171.327 13.1766Z" fill="currentColor"/>
<path d="M164.491 16.9648C164.867 16.9804 165.247 16.9511 165.631 16.8771V15.9826C165.187 16.0489 164.807 16.0606 164.491 16.0177C164.179 15.9748 163.951 15.8287 163.807 15.5792C163.731 15.4467 163.689 15.2889 163.681 15.1057C163.677 14.9225 163.675 14.7023 163.675 14.4451V11.4226H165.631V10.5632H163.675V8.8094H162.607V10.5632H161.293V11.4226H162.607V14.4919C162.607 14.8153 162.611 15.1057 162.619 15.3629C162.631 15.6163 162.701 15.8677 162.829 16.1171C162.981 16.4016 163.203 16.6121 163.495 16.7485C163.787 16.881 164.119 16.9531 164.491 16.9648Z" fill="currentColor"/>
<path fill-rule="evenodd" clip-rule="evenodd" d="M157.109 17.0526C156.625 17.0526 156.219 16.9668 155.891 16.7954C155.567 16.62 155.321 16.39 155.153 16.1055C154.989 15.821 154.907 15.5092 154.907 15.1701C154.907 14.8388 154.971 14.5524 155.099 14.3107C155.231 14.0652 155.415 13.8625 155.651 13.7027C155.887 13.539 156.169 13.4104 156.497 13.3169C156.805 13.235 157.149 13.1649 157.529 13.1064C157.913 13.0441 158.301 12.9876 158.693 12.9369C158.941 12.9048 159.179 12.8735 159.406 12.8429C159.394 12.3642 159.278 12.0038 159.059 11.7618C158.819 11.4929 158.403 11.3584 157.811 11.3584C157.419 11.3584 157.075 11.4461 156.779 11.6215C156.487 11.793 156.281 12.0736 156.161 12.4634L155.147 12.1652C155.303 11.6118 155.605 11.1772 156.053 10.8615C156.501 10.5458 157.091 10.388 157.823 10.388C158.411 10.388 158.915 10.4913 159.335 10.6978C159.759 10.9005 160.063 11.2084 160.247 11.6215C160.339 11.8164 160.397 12.0288 160.421 12.2587C160.445 12.4848 160.457 12.7225 160.457 12.972V16.8772H159.509V15.894C159.292 16.2155 159.024 16.4711 158.705 16.6609C158.269 16.922 157.737 17.0526 157.109 17.0526ZM157.271 16.1815C157.655 16.1815 157.987 16.1153 158.267 15.9827C158.551 15.8463 158.779 15.669 158.951 15.4507C159.123 15.2286 159.235 14.9869 159.287 14.7258C159.347 14.5309 159.379 14.3146 159.383 14.0769C159.387 13.9439 159.39 13.828 159.392 13.7292C159.173 13.7582 158.955 13.7864 158.741 13.8138C158.405 13.8567 158.087 13.9035 157.787 13.9541C157.487 14.0009 157.217 14.0574 156.977 14.1237C156.801 14.1782 156.635 14.2484 156.479 14.3341C156.327 14.4199 156.203 14.5309 156.107 14.6674C156.015 14.7999 155.969 14.9655 155.969 15.1643C155.969 15.3358 156.013 15.4995 156.101 15.6554C156.193 15.8113 156.333 15.9379 156.521 16.0354C156.713 16.1328 156.963 16.1815 157.271 16.1815Z" fill="currentColor"/>
<path fill-rule="evenodd" clip-rule="evenodd" d="M149.434 16.6434C149.91 16.9162 150.466 17.0526 151.102 17.0526C151.73 17.0526 152.296 16.9006 152.8 16.5966C153.308 16.2887 153.688 15.8561 153.94 15.2987L152.914 14.9538C152.734 15.3124 152.486 15.5871 152.17 15.7781C151.854 15.9691 151.482 16.0646 151.054 16.0646C150.418 16.0646 149.928 15.86 149.584 15.4507C149.287 15.0968 149.118 14.6174 149.078 14.0126L154.048 14.0126C154.08 13.2643 153.98 12.6193 153.748 12.0775C153.52 11.5358 153.176 11.1187 152.716 10.8264C152.26 10.5341 151.706 10.388 151.054 10.388C150.426 10.388 149.878 10.5263 149.41 10.803C148.946 11.0759 148.584 11.4656 148.324 11.9723C148.064 12.475 147.934 13.0714 147.934 13.7612C147.934 14.4199 148.066 14.9967 148.33 15.4917C148.594 15.9827 148.962 16.3666 149.434 16.6434ZM152.482 11.9021C152.729 12.204 152.882 12.6288 152.941 13.1766H149.1C149.165 12.6644 149.326 12.2532 149.584 11.943C149.928 11.5299 150.43 11.3234 151.09 11.3234C151.706 11.3234 152.17 11.5163 152.482 11.9021Z" fill="currentColor"/>
<path d="M143.935 16.877V10.5631H144.889V11.5641C144.931 11.4909 144.977 11.4203 145.027 11.3523C145.15 11.1886 145.288 11.0542 145.44 10.949C145.608 10.8164 145.798 10.7151 146.01 10.645C146.222 10.5748 146.438 10.5339 146.658 10.5222C146.878 10.5066 147.084 10.5202 147.276 10.5631V11.5394C147.052 11.481 146.806 11.4654 146.538 11.4926C146.27 11.5199 146.022 11.6154 145.794 11.7791C145.586 11.9233 145.424 12.0987 145.308 12.3053C145.196 12.5118 145.119 12.7359 145.075 12.9776C145.031 13.2153 145.009 13.4589 145.009 13.7083V16.877H143.935Z" fill="currentColor"/>
<path d="M138.265 16.6258C138.725 16.9103 139.283 17.0526 139.939 17.0526C140.611 17.0526 141.185 16.8967 141.661 16.5849C142.137 16.2731 142.487 15.8229 142.711 15.2344L141.631 14.9597C141.487 15.3182 141.275 15.593 140.995 15.784C140.715 15.971 140.363 16.0646 139.939 16.0646C139.295 16.0646 138.809 15.8502 138.481 15.4215C138.157 14.9889 137.991 14.4218 137.983 13.7203C137.987 13.2643 138.059 12.8609 138.199 12.5101C138.339 12.1555 138.553 11.8787 138.841 11.68C139.129 11.4773 139.495 11.376 139.939 11.376C140.335 11.376 140.685 11.4773 140.989 11.68C141.297 11.8826 141.519 12.1672 141.655 12.5335L142.711 12.2237C142.543 11.6546 142.211 11.2064 141.715 10.879C141.223 10.5517 140.635 10.388 139.951 10.388C139.303 10.388 138.749 10.5283 138.289 10.8089C137.829 11.0895 137.475 11.4812 137.227 11.984C136.983 12.4828 136.857 13.0616 136.849 13.7203C136.857 14.3634 136.981 14.9363 137.221 15.439C137.461 15.9418 137.809 16.3374 138.265 16.6258Z" fill="currentColor"/>
<path fill-rule="evenodd" clip-rule="evenodd" d="M130.525 17.0526C129.889 17.0526 129.333 16.9162 128.857 16.6434C128.385 16.3666 128.017 15.9827 127.753 15.4917C127.489 14.9967 127.357 14.4199 127.357 13.7612C127.357 13.0714 127.487 12.475 127.747 11.9723C128.007 11.4656 128.369 11.0759 128.833 10.803C129.301 10.5263 129.849 10.388 130.477 10.388C131.129 10.388 131.683 10.5341 132.139 10.8264C132.599 11.1187 132.943 11.5358 133.171 12.0775C133.403 12.6193 133.503 13.2643 133.471 14.0126L128.5 14.0126C128.541 14.6174 128.709 15.0968 129.007 15.4507C129.351 15.86 129.841 16.0646 130.477 16.0646C130.905 16.0646 131.277 15.9691 131.593 15.7781C131.909 15.5871 132.157 15.3124 132.337 14.9538L133.363 15.2987C133.111 15.8561 132.731 16.2887 132.223 16.5966C131.719 16.9006 131.153 17.0526 130.525 17.0526ZM132.364 13.1766C132.304 12.6288 132.151 12.204 131.905 11.9021C131.593 11.5163 131.129 11.3234 130.513 11.3234C129.853 11.3234 129.351 11.5299 129.007 11.943C128.749 12.2532 128.587 12.6644 128.523 13.1766L132.364 13.1766Z" fill="currentColor"/>
<path d="M117.998 10.5573L119.978 16.877H120.866L122.432 12.0773L123.998 16.877H124.886L126.866 10.5632H125.81L124.358 15.1817L122.906 10.5632H121.964L120.506 15.1817L119.06 10.5632L117.998 10.5573Z" fill="currentColor"/>
</svg>
