<svg width="55" height="42" viewBox="0 0 70 48" fill="none" xmlns="http://www.w3.org/2000/svg">
<path d="M69.3021 18.1288C69.1088 18.5121 68.8152 18.7583 68.4016 18.8802L65.5314 19.7763C65.3797 19.8296 65.2672 19.9463 65.2182 20.1037C65.1913 20.1875 65.184 20.2687 65.2011 20.35C65.2158 20.4312 65.2525 20.5048 65.3014 20.5556L67.1219 23.0154C67.3764 23.3606 67.4718 23.7464 67.4131 24.1957C67.3544 24.6425 67.1537 24.9903 66.8014 25.2543C66.4441 25.5208 66.06 25.6198 65.6318 25.5614C65.2011 25.4777 64.8781 25.2619 64.6432 24.8964L62.9451 22.3097L62.9206 22.2792C62.8227 22.1777 62.6833 22.1218 62.5169 22.1218C62.3505 22.1218 62.211 22.203 62.1449 22.3274L60.4639 24.8913C60.207 25.2594 59.8693 25.4777 59.4436 25.5589C59.008 25.6198 58.6239 25.5208 58.2715 25.2568C57.9363 24.9903 57.7332 24.64 57.6549 24.1932C57.5962 23.749 57.7014 23.3682 57.9804 23.0154L59.8155 20.5378L59.8351 20.5023C59.8914 20.3855 59.8963 20.2484 59.8498 20.1037C59.8033 19.959 59.7201 19.8524 59.5953 19.7864L56.7031 18.8802H56.6957C56.2626 18.7558 55.9592 18.5121 55.7659 18.1313C55.5677 17.7201 55.5286 17.3089 55.646 16.8849C55.783 16.4559 56.0424 16.1488 56.4364 15.9457C56.8303 15.7401 57.2218 15.7096 57.6304 15.8518L60.4639 16.9281C60.5447 16.956 60.6254 16.9611 60.7013 16.9459C60.7771 16.9306 60.8481 16.8925 60.8921 16.8469C61.0292 16.7479 61.105 16.6006 61.105 16.4331L61.0365 13.3158C61.0169 12.8462 61.1491 12.4731 61.4451 12.1659C61.7363 11.841 62.0887 11.6836 62.5169 11.6836C62.9695 11.6836 63.3317 11.841 63.6302 12.171C63.9238 12.4756 64.0658 12.8538 64.0658 13.3209L63.9972 16.4382C63.9972 16.5879 64.0486 16.7199 64.1587 16.8316L64.1906 16.857C64.33 16.9535 64.4891 16.9789 64.6457 16.923L67.4694 15.8518C67.8609 15.7122 68.2402 15.7426 68.6317 15.9457C69.0232 16.1488 69.2678 16.4534 69.3902 16.8875C69.5272 17.3165 69.4979 17.7226 69.3021 18.1288Z" fill="#3E74ED"/>
<path fill-rule="evenodd" clip-rule="evenodd" d="M3.64256 23.3455L3.64367 23.3463C3.60291 23.4107 3.56345 23.4763 3.52527 23.5432C3.15345 24.2306 2.96522 25.0072 2.96522 25.8526C2.96522 26.698 3.15345 27.4885 3.52295 28.1529C3.90871 28.8196 4.43157 29.3511 5.07528 29.7337C5.7306 30.1278 6.47191 30.3271 7.27596 30.3271C8.08001 30.3271 8.83759 30.1278 9.47895 29.7314C10.1227 29.3511 10.6339 28.8196 11.0011 28.1575C11.3729 27.493 11.5611 26.7164 11.5611 25.8526C11.5611 25.7232 11.5569 25.5959 11.5485 25.4709V21.3888H7.89388H6.90002C6.13786 21.3888 5.52001 20.7709 5.52001 20.0088C5.52001 19.2467 6.13786 18.6289 6.90002 18.6289H7.27596H7.69897H12.0569H12.7832C13.7459 18.6289 14.5264 19.4093 14.5264 20.372V25.8526V26.0369V31.6424C14.5264 32.0891 14.3823 32.4557 14.1011 32.7352C13.8176 33.0124 13.4458 33.1545 12.9926 33.1545C12.5395 33.1545 12.1909 33.0147 11.8841 32.7352C11.603 32.4557 11.4589 32.0891 11.4589 31.6424V31.1313C10.943 31.649 10.3365 32.0729 9.65326 32.3959C8.77251 32.8312 7.80115 33.0512 6.76703 33.0512C5.4866 33.0512 4.32002 32.7258 3.29987 32.0843C2.28667 31.4658 1.46867 30.5997 0.871443 29.5069C0.292806 28.4392 0 27.2089 0 25.8526C0 24.4963 0.320693 23.2523 0.952778 22.1617C1.0514 21.9963 1.15544 21.8357 1.26481 21.6801L1.26164 21.6778L1.25389 21.6887C1.25643 21.6851 1.25906 21.6815 1.26164 21.6778C1.72709 21.0238 2.63454 20.871 3.28861 21.3364C3.93674 21.7976 4.09274 22.6929 3.64256 23.3455Z" fill="#18233A"/>
<path d="M30.2066 13.3646C29.9231 13.0874 29.5512 12.9453 29.0981 12.9453C28.6449 12.9453 28.2964 13.0851 27.9896 13.3646C27.7084 13.6441 27.5643 14.0107 27.5643 14.4574V20.6525C27.0484 20.1347 26.4419 19.7108 25.7587 19.3878C24.878 18.9525 23.9066 18.7325 22.8725 18.7325C21.5921 18.7325 20.4255 19.0579 19.4053 19.6994C18.3921 20.318 17.5741 21.184 16.9769 22.2768C16.3983 23.3445 16.1055 24.5748 16.1055 25.9311C16.1055 27.2874 16.4262 28.5315 17.0582 29.622C17.7043 30.7057 18.5827 31.5809 19.6679 32.2201C20.7718 32.8409 22.022 33.1548 23.3814 33.1548C24.7409 33.1548 25.9841 32.841 27.074 32.2178C28.1569 31.5809 29.026 30.7057 29.6558 29.622C30.3042 28.5337 30.6318 27.292 30.6318 25.9311V14.4574C30.6318 14.0107 30.4878 13.6441 30.2066 13.3646ZM23.3814 30.433C22.5774 30.433 21.8361 30.2406 21.1831 29.8626C20.5417 29.4685 20.0188 28.9209 19.6307 28.2405C19.2589 27.5532 19.0707 26.7765 19.0707 25.9311C19.0707 25.0857 19.2589 24.2953 19.6284 23.6309C20.0142 22.9642 20.537 22.4326 21.1807 22.05C21.8361 21.656 22.5774 21.4566 23.3814 21.4566C24.1855 21.4566 24.943 21.6559 25.5844 22.0523C26.2281 22.4326 26.7394 22.9642 27.1065 23.6263C27.4784 24.2907 27.6666 25.0674 27.6666 25.9311C27.6666 26.7948 27.4784 27.5577 27.1065 28.2405C26.737 28.9209 26.2235 29.4662 25.5844 29.8603C24.9454 30.2406 24.2041 30.433 23.3814 30.433Z" fill="#18233A"/>
<path d="M52.1058 24.353V31.6262C52.1058 32.0592 51.9654 32.4297 51.6892 32.7261C51.4062 33.0132 51.0357 33.1545 50.5869 33.1545C50.1381 33.1545 49.7883 33.0133 49.4961 32.7377C49.2084 32.4297 49.068 32.0592 49.068 31.6262V24.353C49.068 23.3573 48.8287 22.6186 48.3523 22.1555C47.8691 21.6693 47.2546 21.4331 46.4676 21.4331C45.6805 21.4331 44.9924 21.7086 44.4608 22.2759C43.943 22.8456 43.6899 23.5588 43.6899 24.4549V31.6262C43.6899 32.0592 43.5495 32.4297 43.2733 32.7261C42.9903 33.0132 42.6198 33.1545 42.171 33.1545C41.7223 33.1545 41.3725 33.0133 41.0802 32.7377C40.7925 32.4297 40.6521 32.0592 40.6521 31.6262V24.353C40.6521 23.3573 40.4105 22.6163 39.9364 22.1555C39.4532 21.6693 38.8387 21.4331 38.0517 21.4331C37.2646 21.4331 36.5765 21.7086 36.0449 22.2759C35.5087 22.8456 35.2487 23.5588 35.2487 24.4549V31.6262C35.2487 32.0592 35.1083 32.4297 34.8321 32.7261C34.5491 33.0132 34.1786 33.1545 33.7298 33.1545C33.2811 33.1545 32.9312 33.0133 32.639 32.7377C32.3513 32.4297 32.2109 32.0592 32.2109 31.6262V20.31C32.2109 19.8562 32.3536 19.4857 32.6344 19.2055C32.9312 18.923 33.2972 18.7817 33.7298 18.7817C34.1625 18.7817 34.5491 18.9253 34.8275 19.2078C34.9955 19.3745 35.1129 19.5737 35.1796 19.8075C35.3683 19.6524 35.5686 19.5065 35.7826 19.3768C36.5926 18.8813 37.5247 18.6289 38.5557 18.6289C39.5866 18.6289 40.4473 18.8535 41.2229 19.2958C41.743 19.5922 42.1871 19.9905 42.5507 20.4791C42.9373 20.0414 43.3999 19.6709 43.9292 19.3722C44.8221 18.879 45.8439 18.6289 46.9715 18.6289C47.9657 18.6289 48.8632 18.8535 49.6388 19.2958C50.4189 19.7404 51.0264 20.4073 51.4476 21.2733C51.8848 22.1185 52.1058 23.1559 52.1058 24.353Z" fill="#18233A"/>
</svg>
