<svg width="228" height="40" viewBox="0 0 228 40" fill="none" xmlns="http://www.w3.org/2000/svg">
    <path
        d="M109.731 10.7053C109.425 11.3122 108.96 11.7021 108.305 11.895L103.761 13.3139C103.521 13.3983 103.342 13.5832 103.265 13.8324C103.222 13.965 103.211 14.0936 103.238 14.2223C103.261 14.3509 103.319 14.4674 103.397 14.5478L106.279 18.4426C106.682 18.9893 106.833 19.6002 106.74 20.3117C106.647 21.0191 106.33 21.5698 105.772 21.9878C105.206 22.4098 104.598 22.5666 103.92 22.4741C103.238 22.3415 102.726 21.9998 102.354 21.421L99.6656 17.3252L99.6269 17.277C99.4719 17.1162 99.251 17.0278 98.9876 17.0278C98.7241 17.0278 98.5033 17.1564 98.3987 17.3534L95.737 21.413C95.3302 21.9958 94.7955 22.3415 94.1214 22.4701C93.4317 22.5666 92.8234 22.4098 92.2655 21.9918C91.7347 21.5697 91.4132 21.0151 91.2892 20.3076C91.1962 19.6043 91.3628 19.0013 91.8045 18.4426L94.7103 14.5197L94.7413 14.4634C94.8304 14.2785 94.8381 14.0615 94.7645 13.8324C94.6909 13.6033 94.5592 13.4345 94.3616 13.3299L89.7821 11.895H89.7704C89.0847 11.6981 88.6042 11.3122 88.2981 10.7093C87.9843 10.0581 87.9223 9.40701 88.1083 8.73577C88.3253 8.05649 88.736 7.57013 89.3597 7.24858C89.9835 6.92301 90.6034 6.87478 91.2504 7.09987L95.737 8.8041C95.8648 8.84831 95.9927 8.85635 96.1128 8.83223C96.2329 8.80812 96.3453 8.74782 96.415 8.67547C96.632 8.51872 96.7521 8.2856 96.7521 8.02032L96.6436 3.08448C96.6126 2.34089 96.8218 1.75003 97.2906 1.26369C97.7517 0.749201 98.3096 0.5 98.9876 0.5C99.7043 0.5 100.278 0.749203 100.75 1.27173C101.215 1.75406 101.44 2.35295 101.44 3.09252L101.332 8.02836C101.332 8.2655 101.413 8.47451 101.587 8.65137L101.638 8.69156C101.859 8.84429 102.11 8.88449 102.358 8.79606L106.829 7.09987C107.449 6.8788 108.05 6.92703 108.67 7.24858C109.29 7.57013 109.677 8.05247 109.871 8.73979C110.088 9.41907 110.041 10.0622 109.731 10.7053Z"
        fill="#3E74ED" />
    <path fill-rule="evenodd" clip-rule="evenodd"
        d="M5.7676 18.9683L5.76937 18.9696C5.70483 19.0714 5.64234 19.1754 5.58189 19.2813C4.99316 20.3696 4.69511 21.5994 4.69511 22.938C4.69511 24.2766 4.99316 25.5282 5.57821 26.5802C6.18902 27.6358 7.01692 28.4774 8.03616 29.0833C9.0738 29.7072 10.2476 30.0228 11.5207 30.0228C12.7938 30.0228 13.9934 29.7072 15.0089 29.0796C16.0282 28.4774 16.8377 27.6358 17.4191 26.5874C18.0078 25.5354 18.3058 24.3056 18.3058 22.938C18.3058 22.733 18.2991 22.5316 18.2858 22.3336V15.8699H12.4991H10.9255C9.71866 15.8699 8.74036 14.8917 8.74036 13.685C8.74036 12.4782 9.71866 11.5 10.9255 11.5H11.5207H12.1905H19.0908H20.2408C21.7652 11.5 23.0009 12.7357 23.0009 14.26V22.938V23.2299V32.1055C23.0009 32.8128 22.7728 33.3933 22.3276 33.8358C21.8787 34.2748 21.29 34.4997 20.5724 34.4997C19.8549 34.4997 19.303 34.2784 18.8173 33.8358C18.3721 33.3933 18.1439 32.8128 18.1439 32.1055V31.2962C17.327 32.116 16.3667 32.7871 15.2849 33.2986C13.8903 33.9879 12.3523 34.3361 10.7149 34.3361C8.68746 34.3361 6.8403 33.821 5.22499 32.8053C3.62069 31.8258 2.32549 30.4545 1.37984 28.7241C0.463627 27.0336 0 25.0856 0 22.938C0 20.7904 0.507784 18.8206 1.50862 17.0939C1.66478 16.8319 1.82952 16.5776 2.00269 16.3312L1.99767 16.3277L1.9854 16.3449C1.98942 16.3392 1.99359 16.3334 1.99767 16.3277C2.73466 15.2921 4.17152 15.0501 5.20716 15.787C6.23342 16.5173 6.48043 17.935 5.7676 18.9683Z"
        fill="#18233A" />
    <path
        d="M47.8296 3.16386C47.3806 2.72492 46.7919 2.5 46.0744 2.5C45.3569 2.5 44.8049 2.72129 44.3192 3.16386C43.874 3.60644 43.6459 4.18686 43.6459 4.89425V14.7035C42.829 13.8836 41.8687 13.2125 40.7869 12.701C39.3923 12.0117 37.8543 11.6635 36.2169 11.6635C34.1894 11.6635 32.3423 12.1786 30.7269 13.1944C29.1227 14.1738 27.8274 15.5451 26.8818 17.2755C25.9656 18.966 25.502 20.914 25.502 23.0616C25.502 25.2092 26.0097 27.179 27.0106 28.9058C28.0335 30.6217 29.4244 32.0074 31.1427 33.0195C32.8905 34.0026 34.8701 34.4996 37.0227 34.4996C39.1752 34.4996 41.1438 34.0026 42.8695 33.0159C44.5842 32.0074 45.9603 30.6217 46.9575 28.9058C47.9841 27.1826 48.5029 25.2164 48.5029 23.0616V4.89425C48.5029 4.18686 48.2748 3.60644 47.8296 3.16386ZM37.0227 30.19C35.7495 30.19 34.5757 29.8852 33.5418 29.2867C32.5262 28.6627 31.6983 27.7957 31.0839 26.7183C30.4951 25.63 30.1971 24.4002 30.1971 23.0616C30.1971 21.723 30.4951 20.4714 31.0802 19.4194C31.691 18.3638 32.5189 17.5222 33.5381 16.9163C34.5758 16.2924 35.7495 15.9768 37.0227 15.9768C38.2958 15.9768 39.4953 16.2924 40.5109 16.92C41.5301 17.5222 42.3396 18.3638 42.921 19.4122C43.5097 20.4642 43.8078 21.694 43.8078 23.0616C43.8078 24.4292 43.5097 25.6372 42.921 26.7183C42.3359 27.7957 41.5228 28.6591 40.5109 29.283C39.499 29.8852 38.3252 30.19 37.0227 30.19Z"
        fill="#18233A" />
    <path
        d="M82.5033 20.5635V32.0799C82.5033 32.7655 82.281 33.3521 81.8438 33.8214C81.3956 34.2761 80.8089 34.4997 80.0984 34.4997C79.3878 34.4997 78.8339 34.2761 78.3711 33.8398C77.9157 33.3521 77.6934 32.7655 77.6934 32.0799V20.5635C77.6934 18.9869 77.3144 17.8173 76.5602 17.084C75.7949 16.3141 74.822 15.9401 73.5758 15.9401C72.3296 15.9401 71.2401 16.3764 70.3983 17.2747C69.5785 18.1766 69.1776 19.3059 69.1776 20.7248V32.0799C69.1776 32.7655 68.9554 33.3521 68.5181 33.8214C68.0699 34.2761 67.4832 34.4997 66.7727 34.4997C66.0621 34.4997 65.5082 34.2761 65.0455 33.8398C64.59 33.3521 64.3677 32.7655 64.3677 32.0799V20.5635C64.3677 18.9869 63.9851 17.8137 63.2345 17.084C62.4692 16.3141 61.4964 15.9401 60.2501 15.9401C59.0039 15.9401 57.9144 16.3764 57.0727 17.2747C56.2237 18.1766 55.8119 19.3059 55.8119 20.7248V32.0799C55.8119 32.7655 55.5896 33.3521 55.1523 33.8214C54.7041 34.2761 54.1175 34.4997 53.4069 34.4997C52.6964 34.4997 52.1425 34.2761 51.6797 33.8398C51.2242 33.3521 51.002 32.7655 51.002 32.0799V14.1619C51.002 13.4432 51.2279 12.8566 51.6724 12.413C52.1425 11.9656 52.7219 11.742 53.4069 11.742C54.092 11.742 54.7042 11.9693 55.1451 12.4166C55.4111 12.6806 55.5969 12.9959 55.7026 13.3662C56.0014 13.1206 56.3184 12.8896 56.6573 12.6843C57.9399 11.8997 59.4157 11.5 61.0482 11.5C62.6806 11.5 64.0434 11.8556 65.2714 12.5559C66.0949 13.0252 66.7982 13.6559 67.3739 14.4295C67.9861 13.7366 68.7185 13.1499 69.5566 12.6769C70.9704 11.896 72.5883 11.5 74.3738 11.5C75.948 11.5 77.3691 11.8556 78.5971 12.5559C79.8323 13.2599 80.7943 14.3159 81.4611 15.6871C82.1535 17.0254 82.5033 18.6679 82.5033 20.5635Z"
        fill="#18233A" />
    <path
        d="M119.995 17.9249L118.004 11.3618L119.072 11.3678L120.526 16.1642L121.991 11.3678H122.939L124.398 16.1642L125.858 11.3678H126.92L124.929 17.9249H124.037L122.462 12.9403L120.888 17.9249H119.995Z"
        fill="#18233A" />
    <path
        d="M130.597 18.107C129.958 18.107 129.399 17.9654 128.92 17.682C128.446 17.3947 128.076 16.996 127.81 16.486C127.545 15.9719 127.412 15.3729 127.412 14.6889C127.412 13.9724 127.543 13.3532 127.804 12.831C128.066 12.3048 128.429 11.9001 128.896 11.6168C129.367 11.3294 129.918 11.1857 130.549 11.1857C131.204 11.1857 131.762 11.3375 132.22 11.641C132.682 11.9446 133.028 12.3777 133.258 12.9403C133.491 13.5029 133.591 14.1728 133.559 14.9499H132.473V14.5614C132.461 13.7559 132.298 13.1548 131.985 12.7582C131.671 12.3575 131.204 12.1571 130.585 12.1571C129.922 12.1571 129.417 12.3716 129.071 12.8007C128.725 13.2297 128.552 13.8449 128.552 14.6464C128.552 15.4194 128.725 16.0185 129.071 16.4435C129.417 16.8685 129.909 17.081 130.549 17.081C130.979 17.081 131.353 16.9818 131.671 16.7835C131.989 16.5851 132.238 16.2998 132.419 15.9274L133.451 16.2856C133.197 16.8644 132.815 17.3137 132.304 17.6335C131.798 17.9492 131.229 18.107 130.597 18.107ZM128.19 14.9499V14.0817H133.004V14.9499H128.19Z"
        fill="#18233A" />
    <path
        d="M140.063 18.107C139.403 18.107 138.842 17.9593 138.379 17.6638C137.921 17.3643 137.571 16.9535 137.33 16.4313C137.089 15.9092 136.964 15.3142 136.956 14.6464C136.964 13.9623 137.091 13.3613 137.336 12.8432C137.585 12.321 137.941 11.9142 138.404 11.6228C138.866 11.3314 139.423 11.1857 140.075 11.1857C140.762 11.1857 141.354 11.3557 141.848 11.6957C142.347 12.0357 142.681 12.5011 142.85 13.0921L141.788 13.4139C141.651 13.0334 141.428 12.7379 141.118 12.5275C140.813 12.317 140.461 12.2117 140.063 12.2117C139.616 12.2117 139.248 12.317 138.959 12.5275C138.669 12.7339 138.454 13.0213 138.313 13.3896C138.172 13.7539 138.1 14.1728 138.096 14.6464C138.104 15.3749 138.271 15.9638 138.597 16.4131C138.926 16.8584 139.415 17.081 140.063 17.081C140.489 17.081 140.843 16.9838 141.124 16.7895C141.406 16.5912 141.619 16.3059 141.764 15.9335L142.85 16.2188C142.624 16.83 142.273 17.2975 141.794 17.6213C141.315 17.9451 140.738 18.107 140.063 18.107Z"
        fill="#18233A" />
    <path
        d="M144.081 17.9249V11.3678H145.04V12.9525L144.883 12.746C144.96 12.5436 145.058 12.3575 145.179 12.1875C145.304 12.0175 145.442 11.8778 145.595 11.7685C145.764 11.6309 145.955 11.5257 146.168 11.4528C146.381 11.38 146.599 11.3375 146.82 11.3253C147.041 11.3091 147.248 11.3233 147.441 11.3678V12.3817C147.216 12.321 146.969 12.3048 146.699 12.3332C146.43 12.3615 146.18 12.4607 145.951 12.6307C145.742 12.7804 145.579 12.9626 145.462 13.1771C145.35 13.3916 145.271 13.6243 145.227 13.8753C145.183 14.1222 145.161 14.3752 145.161 14.6342V17.9249H144.081Z"
        fill="#18233A" />
    <path
        d="M151.287 18.107C150.648 18.107 150.089 17.9654 149.61 17.682C149.136 17.3947 148.766 16.996 148.5 16.486C148.235 15.9719 148.102 15.3729 148.102 14.6889C148.102 13.9724 148.233 13.3532 148.494 12.831C148.756 12.3048 149.12 11.9001 149.586 11.6168C150.057 11.3294 150.608 11.1857 151.239 11.1857C151.895 11.1857 152.452 11.3375 152.91 11.641C153.373 11.9446 153.718 12.3777 153.948 12.9403C154.181 13.5029 154.281 14.1728 154.249 14.9499H153.163V14.5614C153.151 13.7559 152.988 13.1548 152.675 12.7582C152.361 12.3575 151.895 12.1571 151.275 12.1571C150.612 12.1571 150.107 12.3716 149.761 12.8007C149.415 13.2297 149.242 13.8449 149.242 14.6464C149.242 15.4194 149.415 16.0185 149.761 16.4435C150.107 16.8685 150.6 17.081 151.239 17.081C151.669 17.081 152.043 16.9818 152.361 16.7835C152.679 16.5851 152.928 16.2998 153.109 15.9274L154.141 16.2856C153.887 16.8644 153.505 17.3137 152.994 17.6335C152.488 17.9492 151.919 18.107 151.287 18.107ZM148.88 14.9499V14.0817H153.694V14.9499H148.88Z"
        fill="#18233A" />
    <path
        d="M157.327 18.107C156.84 18.107 156.432 18.018 156.102 17.8399C155.776 17.6577 155.529 17.4189 155.36 17.1235C155.195 16.828 155.113 16.5042 155.113 16.1521C155.113 15.808 155.177 15.5105 155.306 15.2596C155.438 15.0046 155.623 14.7941 155.861 14.6281C156.098 14.4581 156.381 14.3246 156.711 14.2274C157.021 14.1424 157.367 14.0696 157.749 14.0089C158.135 13.9441 158.525 13.8854 158.919 13.8328C159.313 13.7802 159.681 13.7296 160.023 13.681L159.637 13.9057C159.649 13.3228 159.532 12.8917 159.287 12.6125C159.046 12.3332 158.628 12.1935 158.032 12.1935C157.638 12.1935 157.292 12.2846 156.995 12.4667C156.701 12.6448 156.494 12.9363 156.373 13.341L155.354 13.0314C155.511 12.4566 155.814 12.0053 156.265 11.6775C156.715 11.3496 157.308 11.1857 158.044 11.1857C158.636 11.1857 159.142 11.2929 159.565 11.5075C159.991 11.7179 160.297 12.0377 160.482 12.4667C160.574 12.6691 160.632 12.8897 160.657 13.1285C160.681 13.3633 160.693 13.6102 160.693 13.8692V17.9249H159.74V16.3524L159.963 16.4981C159.717 17.0284 159.374 17.4291 158.931 17.7002C158.493 17.9714 157.958 18.107 157.327 18.107ZM157.489 17.2024C157.876 17.2024 158.209 17.1336 158.491 16.996C158.776 16.8543 159.006 16.6701 159.179 16.4435C159.352 16.2128 159.464 15.9618 159.516 15.6906C159.577 15.4883 159.609 15.2636 159.613 15.0167C159.621 14.7658 159.625 14.5735 159.625 14.4399L159.999 14.6039C159.649 14.6524 159.305 14.699 158.967 14.7435C158.63 14.788 158.31 14.8366 158.008 14.8892C157.707 14.9378 157.435 14.9965 157.194 15.0653C157.017 15.1219 156.85 15.1948 156.693 15.2838C156.54 15.3729 156.416 15.4883 156.319 15.6299C156.227 15.7675 156.18 15.9396 156.18 16.146C156.18 16.3241 156.225 16.4941 156.313 16.656C156.406 16.8179 156.546 16.9494 156.735 17.0506C156.928 17.1518 157.18 17.2024 157.489 17.2024Z"
        fill="#18233A" />
    <path
        d="M165.899 17.9249C165.513 18.0018 165.131 18.0321 164.753 18.016C164.379 18.0038 164.045 17.9289 163.751 17.7913C163.458 17.6497 163.235 17.4311 163.082 17.1356C162.953 16.8766 162.883 16.6155 162.871 16.3524C162.863 16.0853 162.858 15.7837 162.858 15.4478V9.54642H163.932V15.3992C163.932 15.6663 163.934 15.895 163.938 16.0853C163.946 16.2755 163.989 16.4394 164.065 16.577C164.21 16.8361 164.439 16.9879 164.753 17.0324C165.07 17.0769 165.453 17.0648 165.899 16.996V17.9249ZM161.537 12.2603V11.3678H165.899V12.2603H161.537Z"
        fill="#18233A" />
    <path
        d="M169.774 18.107C169.134 18.107 168.575 17.9654 168.097 17.682C167.622 17.3947 167.252 16.996 166.987 16.486C166.721 15.9719 166.589 15.3729 166.589 14.6889C166.589 13.9724 166.719 13.3532 166.981 12.831C167.242 12.3048 167.606 11.9001 168.073 11.6168C168.543 11.3294 169.094 11.1857 169.726 11.1857C170.381 11.1857 170.938 11.3375 171.397 11.641C171.859 11.9446 172.205 12.3777 172.434 12.9403C172.668 13.5029 172.768 14.1728 172.736 14.9499H171.65V14.5614C171.638 13.7559 171.475 13.1548 171.161 12.7582C170.848 12.3575 170.381 12.1571 169.762 12.1571C169.098 12.1571 168.594 12.3716 168.248 12.8007C167.902 13.2297 167.729 13.8449 167.729 14.6464C167.729 15.4194 167.902 16.0185 168.248 16.4435C168.594 16.8685 169.086 17.081 169.726 17.081C170.156 17.081 170.53 16.9818 170.848 16.7835C171.165 16.5851 171.415 16.2998 171.596 15.9274L172.627 16.2856C172.374 16.8644 171.992 17.3137 171.481 17.6335C170.974 17.9492 170.405 18.107 169.774 18.107ZM167.367 14.9499V14.0817H172.181V14.9499H167.367Z"
        fill="#18233A" />
    <path
        d="M178.956 18.101C178.18 18.101 177.542 17.931 177.043 17.591C176.549 17.2469 176.245 16.7673 176.133 16.1521L177.23 15.976C177.319 16.3322 177.522 16.6155 177.84 16.826C178.157 17.0324 178.552 17.1356 179.022 17.1356C179.469 17.1356 179.818 17.0425 180.072 16.8563C180.325 16.6701 180.452 16.4172 180.452 16.0974C180.452 15.9112 180.41 15.7615 180.325 15.6481C180.241 15.5308 180.066 15.4215 179.8 15.3203C179.539 15.2191 179.143 15.0977 178.612 14.956C178.037 14.8022 177.584 14.6423 177.255 14.4764C176.925 14.3104 176.69 14.1182 176.549 13.8996C176.408 13.681 176.338 13.4159 176.338 13.1042C176.338 12.7197 176.442 12.3838 176.651 12.0964C176.86 11.805 177.152 11.5803 177.526 11.4225C177.904 11.2646 178.342 11.1857 178.841 11.1857C179.336 11.1857 179.778 11.2646 180.168 11.4225C180.558 11.5803 180.872 11.805 181.109 12.0964C181.351 12.3838 181.494 12.7197 181.538 13.1042L180.44 13.3046C180.388 12.9525 180.219 12.6752 179.933 12.4728C179.652 12.2704 179.288 12.1632 178.841 12.151C178.419 12.1348 178.075 12.2097 177.81 12.3757C177.548 12.5416 177.417 12.7663 177.417 13.0496C177.417 13.2074 177.466 13.343 177.562 13.4564C177.663 13.5697 177.846 13.677 178.111 13.7782C178.381 13.8793 178.771 13.9947 179.282 14.1242C179.857 14.2699 180.309 14.4298 180.639 14.6039C180.973 14.7739 181.21 14.9762 181.351 15.211C181.492 15.4417 181.562 15.7271 181.562 16.0671C181.562 16.6985 181.331 17.1963 180.868 17.5606C180.406 17.9208 179.768 18.101 178.956 18.101Z"
        fill="#18233A" />
    <path
        d="M185.667 18.107C185.02 18.107 184.461 17.9593 183.99 17.6638C183.524 17.3683 183.164 16.9595 182.91 16.4374C182.657 15.9153 182.53 15.3162 182.53 14.6403C182.53 13.9522 182.659 13.3491 182.917 12.831C183.174 12.3129 183.538 11.9102 184.008 11.6228C184.479 11.3314 185.032 11.1857 185.667 11.1857C186.319 11.1857 186.88 11.3334 187.35 11.6289C187.821 11.9203 188.181 12.3271 188.43 12.8492C188.684 13.3673 188.81 13.9643 188.81 14.6403C188.81 15.3243 188.684 15.9274 188.43 16.4495C188.177 16.9676 187.815 17.3744 187.344 17.6699C186.874 17.9613 186.315 18.107 185.667 18.107ZM185.667 17.081C186.343 17.081 186.846 16.8543 187.176 16.401C187.505 15.9477 187.67 15.3608 187.67 14.6403C187.67 13.8996 187.503 13.3107 187.17 12.8735C186.836 12.4323 186.335 12.2117 185.667 12.2117C185.213 12.2117 184.839 12.315 184.545 12.5214C184.252 12.7278 184.033 13.0132 183.888 13.3774C183.743 13.7417 183.671 14.1627 183.671 14.6403C183.671 15.3769 183.839 15.9679 184.177 16.4131C184.515 16.8584 185.012 17.081 185.667 17.081Z"
        fill="#18233A" />
    <path d="M190.259 17.9249V9H191.333V17.9249H190.259Z" fill="#18233A" />
    <path
        d="M195.617 18.0949C195.198 18.0949 194.838 18.0281 194.537 17.8945C194.239 17.761 193.992 17.5829 193.795 17.3603C193.598 17.1376 193.443 16.8907 193.33 16.6195C193.218 16.3484 193.137 16.0711 193.089 15.7878C193.045 15.5044 193.022 15.2393 193.022 14.9924V11.3678H194.108V14.6524C194.108 14.96 194.137 15.2575 194.193 15.5449C194.249 15.8323 194.344 16.0913 194.476 16.3221C194.613 16.5528 194.794 16.7349 195.019 16.8685C195.249 17.002 195.534 17.0688 195.876 17.0688C196.145 17.0688 196.391 17.0223 196.612 16.9292C196.833 16.8361 197.022 16.6985 197.179 16.5163C197.336 16.3301 197.456 16.0954 197.541 15.8121C197.625 15.5287 197.668 15.1989 197.668 14.8224L198.373 15.041C198.373 15.6724 198.259 16.2168 198.03 16.6742C197.804 17.1316 197.485 17.4837 197.07 17.7306C196.66 17.9735 196.176 18.0949 195.617 18.0949ZM197.788 17.9249V16.1703H197.668V11.3678H198.747V17.9249H197.788Z"
        fill="#18233A" />
    <path
        d="M204.074 17.9249C203.688 18.0018 203.306 18.0321 202.928 18.016C202.554 18.0038 202.22 17.9289 201.927 17.7913C201.633 17.6497 201.41 17.4311 201.257 17.1356C201.128 16.8766 201.058 16.6155 201.046 16.3524C201.038 16.0853 201.034 15.7837 201.034 15.4478V9.54642H202.108V15.3992C202.108 15.6663 202.11 15.895 202.114 16.0853C202.122 16.2755 202.164 16.4394 202.24 16.577C202.385 16.8361 202.614 16.9879 202.928 17.0324C203.246 17.0769 203.628 17.0648 204.074 16.996V17.9249ZM199.713 12.2603V11.3678H204.074V12.2603H199.713Z"
        fill="#18233A" />
    <path d="M205.518 10.2082V9.09107H206.591V10.2082H205.518ZM205.518 17.9249V11.3678H206.591V17.9249H205.518Z"
        fill="#18233A" />
    <path
        d="M211.176 18.107C210.529 18.107 209.97 17.9593 209.499 17.6638C209.033 17.3683 208.673 16.9595 208.42 16.4374C208.166 15.9153 208.039 15.3162 208.039 14.6403C208.039 13.9522 208.168 13.3491 208.426 12.831C208.683 12.3129 209.047 11.9102 209.517 11.6228C209.988 11.3314 210.541 11.1857 211.176 11.1857C211.828 11.1857 212.389 11.3334 212.86 11.6289C213.33 11.9203 213.69 12.3271 213.939 12.8492C214.193 13.3673 214.319 13.9643 214.319 14.6403C214.319 15.3243 214.193 15.9274 213.939 16.4495C213.686 16.9676 213.324 17.3744 212.854 17.6699C212.383 17.9613 211.824 18.107 211.176 18.107ZM211.176 17.081C211.852 17.081 212.355 16.8543 212.685 16.401C213.014 15.9477 213.179 15.3608 213.179 14.6403C213.179 13.8996 213.012 13.3107 212.679 12.8735C212.345 12.4323 211.844 12.2117 211.176 12.2117C210.722 12.2117 210.348 12.315 210.054 12.5214C209.761 12.7278 209.542 13.0132 209.397 13.3774C209.252 13.7417 209.18 14.1627 209.18 14.6403C209.18 15.3769 209.349 15.9679 209.686 16.4131C210.024 16.8584 210.521 17.081 211.176 17.081Z"
        fill="#18233A" />
    <path
        d="M220.287 17.9249V14.6403C220.287 14.3286 220.259 14.0291 220.202 13.7417C220.15 13.4543 220.056 13.1973 219.919 12.9707C219.786 12.74 219.605 12.5578 219.376 12.4242C219.151 12.2907 218.865 12.2239 218.519 12.2239C218.25 12.2239 218.004 12.2704 217.783 12.3635C217.566 12.4526 217.379 12.5902 217.222 12.7764C217.065 12.9626 216.943 13.1973 216.854 13.4807C216.77 13.7599 216.728 14.0898 216.728 14.4703L216.022 14.2517C216.022 13.6163 216.134 13.0719 216.36 12.6185C216.589 12.1612 216.908 11.811 217.319 11.5682C217.733 11.3213 218.22 11.1978 218.779 11.1978C219.201 11.1978 219.561 11.2646 219.858 11.3982C220.156 11.5318 220.403 11.7098 220.6 11.9325C220.798 12.151 220.952 12.3979 221.065 12.6732C221.178 12.9444 221.256 13.2216 221.3 13.5049C221.349 13.7842 221.373 14.0493 221.373 14.3003V17.9249H220.287ZM215.642 17.9249V11.3678H216.607V13.1224H216.728V17.9249H215.642Z"
        fill="#18233A" />
    <path
        d="M225.402 18.101C224.626 18.101 223.989 17.931 223.49 17.591C222.995 17.2469 222.692 16.7673 222.579 16.1521L223.677 15.976C223.765 16.3322 223.969 16.6155 224.286 16.826C224.604 17.0324 224.998 17.1356 225.469 17.1356C225.915 17.1356 226.265 17.0425 226.518 16.8563C226.772 16.6701 226.898 16.4172 226.898 16.0974C226.898 15.9112 226.856 15.7615 226.772 15.6481C226.687 15.5308 226.512 15.4215 226.247 15.3203C225.985 15.2191 225.589 15.0977 225.058 14.956C224.483 14.8022 224.031 14.6423 223.701 14.4764C223.371 14.3104 223.136 14.1182 222.995 13.8996C222.855 13.681 222.784 13.4159 222.784 13.1042C222.784 12.7197 222.889 12.3838 223.098 12.0964C223.307 11.805 223.599 11.5803 223.973 11.4225C224.351 11.2646 224.789 11.1857 225.288 11.1857C225.782 11.1857 226.225 11.2646 226.615 11.4225C227.005 11.5803 227.319 11.805 227.556 12.0964C227.797 12.3838 227.94 12.7197 227.984 13.1042L226.886 13.3046C226.834 12.9525 226.665 12.6752 226.38 12.4728C226.098 12.2704 225.734 12.1632 225.288 12.151C224.865 12.1348 224.522 12.2097 224.256 12.3757C223.995 12.5416 223.864 12.7663 223.864 13.0496C223.864 13.2074 223.912 13.343 224.009 13.4564C224.109 13.5697 224.292 13.677 224.558 13.7782C224.827 13.8793 225.217 13.9947 225.728 14.1242C226.303 14.2699 226.756 14.4298 227.085 14.6039C227.419 14.7739 227.657 14.9762 227.797 15.211C227.938 15.4417 228.008 15.7271 228.008 16.0671C228.008 16.6985 227.777 17.1963 227.315 17.5606C226.852 17.9208 226.215 18.101 225.402 18.101Z"
        fill="#18233A" />
    <path
        d="M119.229 31.5854V24.6702C119.229 24.5002 119.237 24.3281 119.253 24.1541C119.269 23.976 119.305 23.804 119.361 23.638C119.418 23.468 119.51 23.3122 119.639 23.1705C119.788 23.0046 119.95 22.8872 120.127 22.8184C120.304 22.7455 120.483 22.701 120.664 22.6848C120.849 22.6686 121.024 22.6605 121.189 22.6605H122.016V23.5591H121.249C120.932 23.5591 120.694 23.638 120.538 23.7959C120.381 23.9497 120.302 24.1845 120.302 24.5002V31.5854H119.229ZM118.125 25.9209V25.0284H122.016V25.9209H118.125Z"
        fill="#18233A" />
    <path
        d="M125.518 31.7676C124.87 31.7676 124.311 31.6198 123.841 31.3244C123.374 31.0289 123.014 30.6201 122.761 30.0979C122.508 29.5758 122.381 28.9768 122.381 28.3008C122.381 27.6127 122.51 27.0097 122.767 26.4916C123.024 25.9735 123.388 25.5707 123.859 25.2834C124.329 24.9919 124.882 24.8462 125.518 24.8462C126.169 24.8462 126.73 24.994 127.201 25.2894C127.671 25.5809 128.031 25.9876 128.281 26.5098C128.534 27.0279 128.661 27.6249 128.661 28.3008C128.661 28.9849 128.534 29.588 128.281 30.1101C128.027 30.6282 127.665 31.035 127.195 31.3304C126.724 31.6219 126.165 31.7676 125.518 31.7676ZM125.518 30.7415C126.193 30.7415 126.696 30.5148 127.026 30.0615C127.356 29.6082 127.521 29.0213 127.521 28.3008C127.521 27.5601 127.354 26.9712 127.02 26.5341C126.686 26.0929 126.185 25.8723 125.518 25.8723C125.063 25.8723 124.689 25.9755 124.396 26.1819C124.102 26.3884 123.883 26.6737 123.738 27.038C123.593 27.4023 123.521 27.8232 123.521 28.3008C123.521 29.0375 123.69 29.6284 124.028 30.0737C124.366 30.5189 124.862 30.7415 125.518 30.7415Z"
        fill="#18233A" />
    <path
        d="M129.989 31.5854V25.0284H130.948V26.613L130.791 26.4066C130.868 26.2042 130.966 26.018 131.087 25.848C131.212 25.678 131.35 25.5384 131.503 25.4291C131.672 25.2915 131.863 25.1862 132.076 25.1134C132.289 25.0405 132.507 24.998 132.728 24.9859C132.949 24.9697 133.156 24.9838 133.349 25.0284V26.0423C133.124 25.9816 132.877 25.9654 132.607 25.9937C132.338 26.022 132.088 26.1212 131.859 26.2912C131.65 26.441 131.487 26.6231 131.371 26.8376C131.258 27.0522 131.179 27.2849 131.135 27.5358C131.091 27.7827 131.069 28.0357 131.069 28.2948V31.5854H129.989Z"
        fill="#18233A" />
    <path
        d="M138.293 31.5854L136.302 25.0223L137.37 25.0284L138.824 29.8247L140.29 25.0284H141.237L142.697 29.8247L144.157 25.0284H145.218L143.228 31.5854H142.335L140.76 26.6008L139.186 31.5854H138.293Z"
        fill="#18233A" />
    <path
        d="M148.895 31.7676C148.256 31.7676 147.697 31.6259 147.218 31.3426C146.744 31.0552 146.374 30.6565 146.108 30.1465C145.843 29.6325 145.71 29.0334 145.71 28.3494C145.71 27.633 145.841 27.0137 146.102 26.4916C146.364 25.9654 146.728 25.5606 147.194 25.2773C147.665 24.9899 148.216 24.8462 148.847 24.8462C149.503 24.8462 150.06 24.998 150.518 25.3016C150.981 25.6052 151.327 26.0382 151.556 26.6008C151.789 27.1635 151.89 27.8333 151.857 28.6105H150.772V28.2219C150.759 27.4164 150.597 26.8154 150.283 26.4187C149.969 26.018 149.503 25.8176 148.883 25.8176C148.22 25.8176 147.715 26.0322 147.369 26.4612C147.023 26.8903 146.85 27.5055 146.85 28.3069C146.85 29.08 147.023 29.679 147.369 30.104C147.715 30.529 148.208 30.7415 148.847 30.7415C149.277 30.7415 149.651 30.6423 149.969 30.444C150.287 30.2457 150.536 29.9603 150.717 29.588L151.749 29.9462C151.495 30.525 151.113 30.9742 150.603 31.294C150.096 31.6097 149.527 31.7676 148.895 31.7676ZM146.488 28.6105V27.7423H151.302V28.6105H146.488Z"
        fill="#18233A" />
    <path
        d="M156.193 31.7676C155.581 31.7676 155.067 31.6158 154.648 31.3122C154.23 31.0046 153.912 30.5897 153.695 30.0676C153.482 29.5414 153.375 28.9525 153.375 28.3008C153.375 27.6411 153.482 27.0501 153.695 26.528C153.912 26.0059 154.23 25.595 154.648 25.2955C155.071 24.996 155.587 24.8462 156.199 24.8462C156.802 24.8462 157.321 24.998 157.755 25.3016C158.194 25.6011 158.529 26.0119 158.763 26.5341C158.996 27.0562 159.113 27.6451 159.113 28.3008C159.113 28.9565 158.996 29.5455 158.763 30.0676C158.529 30.5897 158.194 31.0046 157.755 31.3122C157.321 31.6158 156.8 31.7676 156.193 31.7676ZM153.194 31.5854V22.8427H154.274V26.7587H154.154V31.5854H153.194ZM156.06 30.7779C156.49 30.7779 156.846 30.6687 157.128 30.4501C157.409 30.2315 157.62 29.936 157.761 29.5637C157.902 29.1872 157.972 28.7663 157.972 28.3008C157.972 27.8394 157.902 27.4225 157.761 27.0501C157.624 26.6778 157.411 26.3823 157.122 26.1637C156.836 25.9451 156.472 25.8359 156.03 25.8359C155.608 25.8359 155.258 25.9411 154.98 26.1516C154.703 26.358 154.496 26.6474 154.359 27.0198C154.222 27.3881 154.154 27.8151 154.154 28.3008C154.154 28.7784 154.22 29.2055 154.353 29.5819C154.489 29.9543 154.699 30.2477 154.98 30.4622C155.262 30.6727 155.622 30.7779 156.06 30.7779Z"
        fill="#18233A" />
    <path
        d="M163.258 31.7676C162.776 31.7676 162.325 31.6967 161.907 31.5551C161.489 31.4134 161.139 31.1908 160.857 30.8872C160.64 30.6444 160.477 30.3772 160.369 30.0858C160.264 29.7903 160.206 29.4787 160.194 29.1508C160.194 28.8311 160.24 28.5194 160.332 28.2158C160.425 27.9082 160.572 27.635 160.773 27.3962C160.877 27.2667 160.994 27.1574 161.123 27.0683C161.255 26.9753 161.388 26.8963 161.521 26.8316C161.243 26.532 161.03 26.2507 160.881 25.9876C160.737 25.7246 160.664 25.4068 160.664 25.0344C160.664 24.5609 160.785 24.1339 161.026 23.7534C161.271 23.3689 161.605 23.0876 162.028 22.9095C162.233 22.8204 162.442 22.7597 162.655 22.7273C162.872 22.6909 163.083 22.6727 163.288 22.6727C163.634 22.6727 163.97 22.7213 164.296 22.8184C164.622 22.9155 164.899 23.0734 165.128 23.292C165.281 23.4215 165.412 23.5712 165.52 23.7412C165.629 23.9072 165.714 24.0812 165.774 24.2634L164.724 24.5366C164.648 24.3302 164.521 24.1561 164.344 24.0145C164.203 23.893 164.038 23.8101 163.849 23.7655C163.664 23.721 163.477 23.6987 163.288 23.6987C162.975 23.6987 162.691 23.7595 162.438 23.8809C162.213 23.9902 162.044 24.144 161.931 24.3423C161.818 24.5366 161.762 24.7673 161.762 25.0344C161.762 25.2652 161.8 25.4554 161.877 25.6051C161.957 25.7509 162.068 25.9067 162.209 26.0726C162.293 26.1617 162.388 26.2568 162.492 26.358C162.601 26.4551 162.711 26.5563 162.824 26.6616L165.382 29.0537C165.394 28.9525 165.402 28.8493 165.406 28.744C165.41 28.6388 165.412 28.5376 165.412 28.4405L165.406 27.2323H166.389V28.653C166.389 28.9403 166.379 29.1852 166.359 29.3876C166.343 29.59 166.315 29.758 166.275 29.8915L167.379 30.9176L166.679 31.6704L165.762 30.7962C165.605 30.9742 165.418 31.1301 165.201 31.2637C164.984 31.3972 164.766 31.4984 164.549 31.5672C164.344 31.6441 164.133 31.6967 163.916 31.7251C163.699 31.7534 163.479 31.7676 163.258 31.7676ZM163.282 30.7294C163.479 30.7294 163.658 30.7172 163.819 30.6929C163.98 30.6687 164.133 30.6221 164.278 30.5533C164.471 30.4602 164.62 30.3712 164.724 30.2862C164.829 30.2012 164.915 30.1222 164.984 30.0494L162.335 27.6087C162.19 27.6573 162.054 27.722 161.925 27.803C161.8 27.8839 161.692 27.979 161.599 28.0883C161.495 28.2179 161.416 28.3696 161.364 28.5437C161.316 28.7177 161.292 28.9019 161.292 29.0962C161.296 29.3026 161.33 29.4928 161.394 29.6669C161.459 29.8409 161.549 29.9968 161.666 30.1344C161.843 30.3408 162.082 30.4926 162.384 30.5897C162.685 30.6828 162.985 30.7294 163.282 30.7294Z"
        fill="#18233A" />
    <path
        d="M170.217 31.7676C169.73 31.7676 169.322 31.6785 168.992 31.5004C168.666 31.3183 168.419 31.0795 168.25 30.784C168.085 30.4885 168.003 30.1647 168.003 29.8126C168.003 29.4686 168.067 29.1711 168.196 28.9201C168.328 28.6651 168.513 28.4546 168.751 28.2887C168.988 28.1187 169.271 27.9851 169.601 27.888C169.911 27.803 170.257 27.7301 170.639 27.6694C171.025 27.6046 171.415 27.546 171.809 27.4933C172.203 27.4407 172.571 27.3901 172.913 27.3416L172.527 27.5662C172.539 26.9833 172.423 26.5523 172.177 26.273C171.936 25.9937 171.518 25.8541 170.922 25.8541C170.528 25.8541 170.182 25.9451 169.885 26.1273C169.591 26.3054 169.384 26.5968 169.263 27.0016L168.244 26.6919C168.401 26.1172 168.704 25.6659 169.155 25.338C169.605 25.0102 170.198 24.8462 170.934 24.8462C171.526 24.8462 172.032 24.9535 172.455 25.168C172.881 25.3785 173.187 25.6982 173.372 26.1273C173.464 26.3297 173.522 26.5503 173.547 26.7891C173.571 27.0238 173.583 27.2707 173.583 27.5298V31.5854H172.63V30.013L172.853 30.1587C172.608 30.6889 172.264 31.0896 171.821 31.3608C171.383 31.632 170.848 31.7676 170.217 31.7676ZM170.379 30.8629C170.766 30.8629 171.099 30.7941 171.381 30.6565C171.666 30.5149 171.896 30.3307 172.069 30.104C172.242 29.8733 172.354 29.6224 172.406 29.3512C172.467 29.1488 172.499 28.9242 172.503 28.6773C172.511 28.4263 172.515 28.234 172.515 28.1005L172.889 28.2644C172.539 28.313 172.195 28.3595 171.857 28.404C171.52 28.4486 171.2 28.4971 170.898 28.5498C170.597 28.5983 170.325 28.657 170.084 28.7258C169.907 28.7825 169.74 28.8553 169.583 28.9444C169.43 29.0334 169.306 29.1488 169.209 29.2905C169.117 29.4281 169.07 29.6001 169.07 29.8065C169.07 29.9846 169.115 30.1546 169.203 30.3165C169.296 30.4784 169.436 30.61 169.625 30.7112C169.818 30.8123 170.07 30.8629 170.379 30.8629Z"
        fill="#18233A" />
    <path
        d="M178.143 31.7676C177.532 31.7676 177.017 31.6158 176.599 31.3122C176.181 31.0046 175.863 30.5897 175.646 30.0676C175.433 29.5414 175.326 28.9525 175.326 28.3008C175.326 27.6411 175.433 27.0501 175.646 26.528C175.863 26.0059 176.181 25.595 176.599 25.2955C177.021 24.996 177.538 24.8462 178.15 24.8462C178.753 24.8462 179.272 24.998 179.706 25.3016C180.144 25.6011 180.48 26.0119 180.713 26.5341C180.947 27.0562 181.063 27.6451 181.063 28.3008C181.063 28.9565 180.947 29.5455 180.713 30.0676C180.48 30.5897 180.144 31.0046 179.706 31.3122C179.272 31.6158 178.751 31.7676 178.143 31.7676ZM175.145 34.4997V25.0284H176.104V29.8551H176.225V34.4997H175.145ZM178.011 30.7779C178.441 30.7779 178.797 30.6687 179.079 30.4501C179.36 30.2315 179.571 29.936 179.712 29.5637C179.853 29.1872 179.923 28.7663 179.923 28.3008C179.923 27.8394 179.853 27.4225 179.712 27.0501C179.575 26.6778 179.362 26.3823 179.072 26.1637C178.787 25.9451 178.423 25.8359 177.981 25.8359C177.558 25.8359 177.208 25.9411 176.931 26.1516C176.653 26.358 176.446 26.6474 176.31 27.0198C176.173 27.3881 176.104 27.8151 176.104 28.3008C176.104 28.7784 176.171 29.2055 176.304 29.5819C176.44 29.9543 176.649 30.2477 176.931 30.4622C177.212 30.6727 177.572 30.7779 178.011 30.7779Z"
        fill="#18233A" />
    <path
        d="M185.378 31.7676C184.767 31.7676 184.252 31.6158 183.834 31.3122C183.415 31.0046 183.098 30.5897 182.88 30.0676C182.667 29.5414 182.561 28.9525 182.561 28.3008C182.561 27.6411 182.667 27.0501 182.88 26.528C183.098 26.0059 183.415 25.595 183.834 25.2955C184.256 24.996 184.773 24.8462 185.384 24.8462C185.987 24.8462 186.506 24.998 186.94 25.3016C187.379 25.6011 187.715 26.0119 187.948 26.5341C188.181 27.0562 188.298 27.6451 188.298 28.3008C188.298 28.9565 188.181 29.5455 187.948 30.0676C187.715 30.5897 187.379 31.0046 186.94 31.3122C186.506 31.6158 185.985 31.7676 185.378 31.7676ZM182.38 34.4997V25.0284H183.339V29.8551H183.46V34.4997H182.38ZM185.245 30.7779C185.676 30.7779 186.031 30.6687 186.313 30.4501C186.594 30.2315 186.806 29.936 186.946 29.5637C187.087 29.1872 187.158 28.7663 187.158 28.3008C187.158 27.8394 187.087 27.4225 186.946 27.0501C186.81 26.6778 186.597 26.3823 186.307 26.1637C186.021 25.9451 185.657 25.8359 185.215 25.8359C184.793 25.8359 184.443 25.9411 184.165 26.1516C183.888 26.358 183.681 26.6474 183.544 27.0198C183.407 27.3881 183.339 27.8151 183.339 28.3008C183.339 28.7784 183.405 29.2055 183.538 29.5819C183.675 29.9543 183.884 30.2477 184.165 30.4622C184.447 30.6727 184.807 30.7779 185.245 30.7779Z"
        fill="#18233A" />
</svg>