<svg width="70" height="91" viewBox="0 0 70 91" fill="none" xmlns="http://www.w3.org/2000/svg">
<path d="M26.25 45.8988C26.25 45.8988 29.0688 40.944 26.3976 38.9028L30.0564 41.574C30.0564 41.574 31.0488 43.8216 28.0692 47.9244L26.25 45.8988Z" fill="#000429" fill-opacity="0.45"/>
<path d="M31.4195 49.0212L28.0703 47.9244L30.0575 41.574L37.8287 43.6536C37.8299 43.6536 34.5491 44.4396 31.4195 49.0212Z" fill="#02062E"/>
<path d="M65.8836 8.49593C65.4024 6.68513 64.5492 5.06633 63.3024 3.72113H63.3072C63.312 3.72593 63.312 3.72593 63.318 3.73193C63.318 3.72713 63.3132 3.72713 63.3132 3.72113L65.3508 5.18513C65.2632 5.10713 64.89 4.78673 64.3992 4.37273C64.3992 4.36793 64.3992 4.36793 64.3944 4.36793C63.3552 3.49433 61.7664 2.20553 61.0896 1.89593L61.1364 1.93193C57.3288 -0.452466 51.9552 -0.577266 46.3164 1.31153C44.3196 1.97873 42.2916 2.89433 40.2852 4.05353C37.8024 5.48633 35.3508 7.29113 33.054 9.44393C22.5636 19.2563 19.0932 32.5859 25.2948 39.2123C25.9572 39.9215 26.7012 40.5263 27.5244 41.0279C27.7308 41.1515 27.9384 41.2715 28.1556 41.3843C28.7088 41.6735 29.2836 41.9219 29.8884 42.1235C29.9868 42.1595 30.09 42.1955 30.1932 42.2219C30.9636 42.4655 31.776 42.6407 32.6196 42.7547C32.6244 42.7547 32.6244 42.7547 32.6304 42.7547C33.3804 42.8531 34.1568 42.8999 34.9584 42.8843C36.9504 42.8735 39.0756 42.5423 41.2536 41.8967C41.274 41.8919 41.2944 41.8859 41.316 41.8811C46.0692 40.4795 51.066 37.6187 55.5096 33.4547C60.9564 28.3643 64.5096 22.3283 65.8032 16.7675C66.4884 13.8035 66.5352 10.9739 65.8836 8.49593ZM63.2868 3.70073H63.282C63.2772 3.69593 63.2712 3.68993 63.2712 3.68513C63.282 3.68993 63.282 3.69593 63.2868 3.70073ZM54.5148 32.3111C45.8304 40.4327 34.8948 42.8483 30.084 37.7063C26.4108 33.7799 27.3732 26.5847 31.8996 19.7879C31.956 19.7051 32.0136 19.6175 32.07 19.5347C32.2356 19.2911 32.412 19.0487 32.5872 18.8111C33.8136 17.1191 35.2512 15.4691 36.8748 13.9079C36.9684 13.8203 37.056 13.7315 37.1484 13.6439C37.3248 13.4831 37.5 13.3235 37.6764 13.1627C37.8528 13.0019 38.028 12.8471 38.2044 12.6971C46.6932 5.37833 56.9196 3.37073 61.5276 8.29553C66.3384 13.4363 63.1992 24.1895 54.5148 32.3111Z" fill="url(#paint0_linear_3038_360600)"/>
<path d="M66.1481 5.87402C65.6201 5.30522 65.0357 4.80362 64.3997 4.37402C64.3997 4.36922 64.3997 4.36922 64.3949 4.36922C64.0481 4.13162 63.6857 3.91442 63.3137 3.72242C63.3089 3.71162 63.2981 3.71162 63.2933 3.70682L63.2885 3.70202H63.2837C59.3165 1.61282 53.8745 1.73642 48.2417 3.83642C46.2401 4.57562 44.2073 5.57402 42.2153 6.81122C40.0589 8.14082 37.9373 9.75482 35.9309 11.6316C26.6153 20.3472 22.8341 31.836 26.4545 38.9436C26.4545 38.9484 26.4545 38.9484 26.4545 38.9484C26.7389 39.5076 27.0653 40.0344 27.4421 40.5312C27.6641 40.8264 27.9029 41.1108 28.1561 41.3844C28.1609 41.3892 28.1669 41.3952 28.1717 41.4C28.6373 41.9016 29.1497 42.3468 29.6921 42.7392C29.8529 42.858 30.0185 42.972 30.1889 43.08C31.6889 44.0424 33.4325 44.652 35.3513 44.916C42.1277 45.8628 51.0089 42.5412 58.3901 35.6412C68.8745 25.8348 72.3497 12.5052 66.1481 5.87402ZM37.1501 13.6428C37.3265 13.482 37.5017 13.3224 37.6781 13.1616C37.8545 13.0008 38.0297 12.846 38.2061 12.696C46.6949 5.37722 56.9213 3.36962 61.5293 8.29442C66.3401 13.4364 63.1997 24.1896 54.5153 32.3112C45.8309 40.4328 34.8953 42.8484 30.0845 37.7064C26.4113 33.78 27.3737 26.5848 31.9001 19.788C31.9565 19.7052 32.0141 19.6176 32.0765 19.5348C32.2421 19.2912 32.4125 19.0488 32.5889 18.8112C33.8153 17.1192 35.2529 15.4692 36.8765 13.908C36.9689 13.8192 37.0565 13.7304 37.1501 13.6428Z" fill="url(#paint1_linear_3038_360600)"/>
<path d="M29.5621 52.7688L6.45012 89.2152L6.29772 89.4516C6.21972 89.544 6.09492 89.6928 6.01692 89.7852C5.45412 90.234 4.55412 90.3024 3.61092 90C3.18132 89.8656 2.20212 89.4132 1.78332 89.1228C0.688919 88.3644 0.055319 87.4524 0.046919 86.5968C0.044519 86.3304 0.140519 86.0736 0.279719 85.8456L0.532919 85.4316L23.6185 48.762L28.2841 51.9072L29.5621 52.7688Z" fill="#D6913D"/>
<path d="M65.8877 8.496C65.5721 7.9992 65.2097 7.5288 64.8017 7.0944C59.1377 1.0368 46.5785 3.5868 36.7457 12.7896C26.9069 21.9864 23.5289 34.3488 29.1881 40.4016C29.6741 40.9188 30.2069 41.3736 30.7817 41.7672C31.3553 42.1548 31.9661 42.4812 32.6177 42.75L32.6225 42.7548C32.6273 42.7548 32.6273 42.7548 32.6333 42.7548C34.1441 43.3812 35.8613 43.686 37.7081 43.6908C43.6829 43.7016 51.0125 40.5408 57.2501 34.7112C66.3737 26.1708 69.9437 14.91 65.8877 8.496ZM32.0789 19.5348C32.2445 19.2912 32.4149 19.0488 32.5913 18.8112C33.8177 17.1192 35.2553 15.4692 36.8789 13.908C36.9725 13.8204 37.0601 13.7316 37.1525 13.644C37.3289 13.4832 37.5041 13.3236 37.6805 13.1628C37.8569 13.002 38.0321 12.8472 38.2085 12.6972C46.6973 5.37839 56.9237 3.37079 61.5317 8.29559C66.3425 13.4376 63.2021 24.1908 54.5177 32.3124C45.8333 40.434 34.8977 42.8496 30.0869 37.7076C26.4137 33.7812 27.3761 26.586 31.9025 19.7892C31.9601 19.7052 32.0177 19.6176 32.0789 19.5348Z" fill="url(#paint2_linear_3038_360600)"/>
<path d="M29.6973 51.871C29.6973 51.871 30.9789 51.9394 31.1757 50.3206C31.3725 48.7006 31.5513 48.1222 31.5513 48.1222L28.2021 47.0254L26.3829 44.9998C26.3829 44.9998 25.0677 46.4338 24.3801 46.6786C23.6925 46.9234 23.7513 47.8678 23.7513 47.8678C23.7513 47.8678 24.8361 49.5562 26.6541 50.7202C28.4745 51.883 29.6973 51.871 29.6973 51.871Z" fill="url(#paint3_linear_3038_360600)"/>
<path d="M65.8002 16.77C65.1378 22.1604 61.7226 28.464 56.1114 33.7116C51.423 38.0976 46.0998 40.9056 41.313 41.8848C36.6462 42.84 32.4894 42.0576 29.919 39.3108C25.893 35.0076 26.9418 27.1392 31.9002 19.7904C27.375 26.5884 26.4126 33.7836 30.0834 37.71C34.893 42.8508 45.831 40.4352 54.5142 32.3124C63.1986 24.1908 66.3378 13.4388 61.5294 8.29684C56.7294 3.16564 45.8262 5.56084 37.1502 13.6476C37.1838 13.6152 37.2174 13.584 37.251 13.5516C46.509 4.89244 58.2354 2.38564 63.4434 7.95364C65.4978 10.1436 66.231 13.2648 65.8002 16.77Z" fill="url(#paint4_linear_3038_360600)"/>
<path d="M54.5156 32.3098C45.8336 40.4326 34.8944 42.8482 30.0848 37.7074C26.414 33.781 27.3764 26.587 31.9016 19.7878C31.958 19.7026 32.0168 19.6174 32.0744 19.5334C33.41 17.593 35.0192 15.6898 36.878 13.9042C36.9692 13.8178 37.0604 13.7302 37.1528 13.645C45.8288 5.55943 56.7308 3.16423 61.532 8.29423C66.3392 13.4362 63.2 24.187 54.5156 32.3098Z" fill="url(#paint5_radial_3038_360600)"/>
<defs>
<linearGradient id="paint0_linear_3038_360600" x1="25.8239" y1="44.2531" x2="60.9022" y2="0.918676" gradientUnits="userSpaceOnUse">
<stop stop-color="#02062E"/>
<stop offset="0.3223" stop-color="#3A3D5C"/>
<stop offset="0.7726" stop-color="#000429" stop-opacity="0.16"/>
<stop offset="1" stop-color="#02062E"/>
</linearGradient>
<linearGradient id="paint1_linear_3038_360600" x1="103.988" y1="59.6439" x2="23.027" y2="8.32916" gradientUnits="userSpaceOnUse">
<stop offset="0.042" stop-color="#02062E"/>
<stop offset="0.4929" stop-color="#000429" stop-opacity="0.45"/>
<stop offset="1" stop-color="#02062E"/>
</linearGradient>
<linearGradient id="paint2_linear_3038_360600" x1="25.7716" y1="46.5416" x2="85.7853" y2="-17.8979" gradientUnits="userSpaceOnUse">
<stop stop-color="#02062E"/>
<stop offset="0.3223" stop-color="#D7D7D9"/>
<stop offset="0.7726" stop-color="#C8C9D0"/>
</linearGradient>
<linearGradient id="paint3_linear_3038_360600" x1="32.0958" y1="51.4841" x2="20.2417" y2="43.2625" gradientUnits="userSpaceOnUse">
<stop stop-color="#000429" stop-opacity="0.45"/>
<stop offset="0.6559" stop-color="#02062E"/>
<stop offset="1" stop-color="#010421"/>
</linearGradient>
<linearGradient id="paint4_linear_3038_360600" x1="26.4473" y1="32.6164" x2="66.9433" y2="14.6349" gradientUnits="userSpaceOnUse">
<stop stop-color="#A9B5C5"/>
<stop offset="0.1057" stop-color="#B9C3D0"/>
<stop offset="0.3108" stop-color="#D3D9E1"/>
<stop offset="0.5238" stop-color="#E5E9ED"/>
<stop offset="0.7477" stop-color="#EFF2F5"/>
<stop offset="1" stop-color="#F3F5F7"/>
</linearGradient>
<radialGradient id="paint5_radial_3038_360600" cx="0" cy="0" r="1" gradientUnits="userSpaceOnUse" gradientTransform="translate(48.2658 9.02892) rotate(124.979) scale(33.6408 18.5749)">
<stop offset="0.5028" stop-color="#7580E1" stop-opacity="0.1"/>
<stop offset="1" stop-color="#000F9D" stop-opacity="0.16"/>
</radialGradient>
</defs>
</svg>
