<svg width="20" height="20" viewBox="0 0 20 20" fill="none" xmlns="http://www.w3.org/2000/svg">
<path fill-rule="evenodd" clip-rule="evenodd" d="M2.58238 10.0625C2.61631 6.01252 5.92695 2.7569 9.9769 2.79083C14.0268 2.82476 17.2825 6.13539 17.2485 10.1853C17.2146 14.2353 13.904 17.4909 9.85403 17.457C5.80408 17.4231 2.54845 14.1124 2.58238 10.0625ZM9.99365 0.790897C4.83917 0.747714 0.625638 4.89124 0.582455 10.0457C0.539272 15.2002 4.68279 19.4137 9.83727 19.4569C14.9917 19.5001 19.2053 15.3566 19.2485 10.2021C19.2917 5.04762 15.1481 0.83408 9.99365 0.790897ZM14.7894 8.38606C15.191 8.00694 15.2092 7.37403 14.8301 6.97243C14.451 6.57083 13.8181 6.55261 13.4165 6.93173L8.86802 11.2256L6.45552 8.84667C6.06227 8.45889 5.42912 8.46333 5.04134 8.85658C4.65356 9.24983 4.658 9.88298 5.05125 10.2708L8.15075 13.3271C8.53409 13.7051 9.14788 13.7118 9.53935 13.3423L14.7894 8.38606Z" fill="#00AA1B"/>
</svg>
