<svg width="24" height="24" viewBox="0 0 24 24" fill="none" xmlns="http://www.w3.org/2000/svg">
<path fill-rule="evenodd" clip-rule="evenodd" d="M4 14.4057V4.75H15.5V8.25V12.5H7.5014C7.50093 12.5 7.50047 12.5 7.5 12.5C7.49953 12.5 7.49907 12.5 7.4986 12.5H6.7109C6.48207 12.5 6.26016 12.5785 6.08221 12.7223L4 14.4057ZM6.5 14.9564L3.62868 17.2777C3.32903 17.5199 2.91684 17.5684 2.56912 17.4024C2.22139 17.2364 2 16.8853 2 16.5V4.5C2 4.03587 2.18438 3.59075 2.51256 3.26256C2.84075 2.93438 3.28587 2.75 3.75 2.75H15.75C16.2141 2.75 16.6592 2.93437 16.9874 3.26256C17.3156 3.59075 17.5 4.03587 17.5 4.5V7.25H20.25C20.7141 7.25 21.1592 7.43437 21.4874 7.76256C21.8156 8.09075 22 8.53587 22 9V21C22 21.3853 21.7786 21.7364 21.4309 21.9024C21.0832 22.0684 20.671 22.0199 20.3713 21.7777L16.9354 19H8.25C7.78587 19 7.34075 18.8156 7.01256 18.4874C6.68437 18.1592 6.5 17.7141 6.5 17.25V14.9564ZM8.5 14.5V17H17.2891C17.5179 17 17.7398 17.0785 17.9178 17.2223L20 18.9057V9.25H17.5V12.75C17.5 13.2141 17.3156 13.6592 16.9874 13.9874C16.6592 14.3156 16.2141 14.5 15.75 14.5H8.5Z" fill="#CA905B"/>
</svg>
