<svg width="24" height="24" viewBox="0 0 24 24" fill="none" xmlns="http://www.w3.org/2000/svg">
<path fill-rule="evenodd" clip-rule="evenodd" d="M9.45703 4.58042C10.3821 4.19723 11.3737 4 12.375 4H12.375C13.3763 4 14.3679 4.19723 15.293 4.58042C16.2181 4.96361 17.0586 5.52526 17.7667 6.23331C18.4747 6.94136 19.0364 7.78193 19.4196 8.70704C19.8028 9.63215 20 10.6237 20 11.625V11.625C20 13.6473 19.1967 15.5867 17.7667 17.0167C16.3367 18.4467 14.3973 19.25 12.375 19.25H4.75V11.625C4.75 10.6237 4.94723 9.63213 5.33042 8.70703C5.71361 7.78192 6.27526 6.94135 6.98331 6.23331C7.69135 5.52526 8.53192 4.96361 9.45703 4.58042ZM12.375 2C11.111 2 9.85942 2.24896 8.69166 2.73266C7.52391 3.21636 6.46285 3.92533 5.56909 4.81909C4.67533 5.71285 3.96636 6.7739 3.48266 7.94166C2.99896 9.10942 2.75 10.361 2.75 11.625V19.5312C2.75 19.9871 2.93108 20.4243 3.25341 20.7466C3.57574 21.0689 4.01291 21.25 4.46875 21.25H12.375C14.9277 21.25 17.3759 20.2359 19.1809 18.4309C20.9859 16.6259 22 14.1777 22 11.625V11.625C22 10.361 21.751 9.10943 21.2673 7.94167C20.7836 6.77391 20.0747 5.71286 19.1809 4.8191C18.2871 3.92533 17.2261 3.21636 16.0583 2.73266C14.8906 2.24896 13.639 2 12.375 2H12.375ZM13.5 12C13.5 12.6213 12.9963 13.125 12.375 13.125C11.7537 13.125 11.25 12.6213 11.25 12C11.25 11.3787 11.7537 10.875 12.375 10.875C12.9963 10.875 13.5 11.3787 13.5 12ZM7.875 13.125C8.49632 13.125 9 12.6213 9 12C9 11.3787 8.49632 10.875 7.875 10.875C7.25368 10.875 6.75 11.3787 6.75 12C6.75 12.6213 7.25368 13.125 7.875 13.125ZM18 12C18 12.6213 17.4963 13.125 16.875 13.125C16.2537 13.125 15.75 12.6213 15.75 12C15.75 11.3787 16.2537 10.875 16.875 10.875C17.4963 10.875 18 11.3787 18 12Z" fill="#02062E"/>
</svg>
