<svg width="72" height="78" viewBox="0 0 72 78" fill="none" xmlns="http://www.w3.org/2000/svg">
  <g id="pencil">
    <path id="Vector"
      d="M70.1729 77.1796L64.5566 74.9053C66.7319 71.3454 68.6694 70.3379 69.959 70.146L71.9183 75.4988C72.3088 76.5768 71.2382 77.6123 70.1729 77.1796Z"
      fill="#02062E" />
    <path id="Vector_2"
      d="M46.5363 66.1741C46.5176 66.17 46.499 66.1658 46.4855 66.1555L45.8199 65.8878L17.1228 35.7289L17.1612 35.6947C16.7656 34.8833 17.265 33.3519 18.4217 31.4863L19.9439 33.1589L20.109 33.3332L21.7817 35.1572L47.5227 62.0104C47.5238 62.0094 49.2858 66.9679 46.5363 66.1741Z"
      fill="#B56F19" />
    <path id="Vector_3"
      d="M55.697 53.906L30.6537 27.7324L28.4576 25.4072L28.4306 25.3865L26.2148 23.0457C30.0151 20.0057 33.4488 18.5043 34.4944 19.6041C34.5495 19.6581 34.592 19.7131 34.6242 19.7826L34.6959 19.7204L62.1719 48.8613C62.1719 48.8613 62.173 48.8728 62.1823 48.9028C62.3827 49.5908 64.7781 58.4619 55.697 53.906Z"
      fill="#F4BF7E" />
    <path id="Vector_4"
      d="M64.5561 74.9043L46.5371 66.1742C49.2876 66.968 47.5246 62.0084 47.5246 62.0084C59.7747 61.8217 55.6972 53.905 55.6972 53.905C64.7794 58.461 62.3829 49.5898 62.1825 48.9009L69.9585 70.145C68.6689 70.3369 66.7314 71.3454 64.5561 74.9043Z"
      fill="url(#paint0_linear_10232_65873)" />
    <path id="Vector_5"
      d="M24.9836 8.79056L17.8607 1.10014C16.6023 -0.221713 11.0805 1.99141 6.43607 6.40624C1.79165 10.8211 -0.953669 15.4725 0.305816 16.7943L7.4287 24.4847C8.68715 25.8066 13.4728 23.2998 18.1182 18.885C22.7626 14.4702 26.2431 10.1135 24.9836 8.79056Z"
      fill="url(#paint1_linear_10232_65873)" />
    <path id="Vector_6"
      d="M23.5866 25.3481C21.3656 27.4636 19.5745 29.6384 18.422 31.4863C17.2663 33.3518 16.7659 34.8833 17.1615 35.6946L17.123 35.7289L6.45117 23.5251C7.02225 21.3036 9.61598 17.6535 13.2781 14.104C17.6588 9.86761 22.1184 7.19796 23.9812 7.58082L34.4931 19.6041C33.4475 18.5053 30.0138 20.0056 26.2136 23.0457C25.3517 23.7367 24.4681 24.5087 23.5866 25.3481Z"
      fill="#EDEDF0" />
    <path id="Vector_7" d="M46.4859 66.1554C46.2855 66.0942 46.0705 66.0101 45.8203 65.8877L46.4859 66.1554Z"
      fill="url(#paint2_linear_10232_65873)" />
    <path id="Vector_8"
      d="M47.524 62.0091L21.7819 35.1549L20.1091 33.3308L19.9441 33.1565L18.4219 31.484C19.5744 29.6361 21.3655 27.4613 23.5865 25.3457C24.4691 24.5074 25.3527 23.7355 26.2145 23.0444L28.4303 25.3852L28.4573 25.4059L30.6533 27.7311L55.6966 53.9047C55.6966 53.9057 59.7741 61.8223 47.524 62.0091Z"
      fill="#753EED" />
    <path id="Vector_9"
      d="M19.7644 21.4082C16.1022 24.9577 13.5085 28.6078 12.9374 30.8292L11.7402 29.4576C12.0019 27.3264 14.7036 23.3619 18.6721 19.5229C22.6447 15.6777 26.6879 13.1222 28.7916 12.9707L30.4685 14.885C28.6036 14.5021 24.1451 17.1718 19.7644 21.4082Z"
      fill="#000429" fill-opacity="0.2" />
  </g>
  <defs>
    <linearGradient id="paint0_linear_10232_65873" x1="49.7189" y1="66.3754" x2="62.6249" y2="53.4693"
      gradientUnits="userSpaceOnUse">
      <stop stop-color="#753EED" />
      <stop offset="1" stop-color="#753EED" stop-opacity="0" />
    </linearGradient>
    <linearGradient id="paint1_linear_10232_65873" x1="7.09079e-05" y1="12.7785" x2="25.2437" y2="12.7785"
      gradientUnits="userSpaceOnUse">
      <stop stop-color="#DAAC82" />
      <stop offset="0.447917" stop-color="#CA905B" />
      <stop offset="0.859375" stop-color="#A6774F" />
    </linearGradient>
    <linearGradient id="paint2_linear_10232_65873" x1="45.8845" y1="65.8095" x2="46.4229" y2="66.2369"
      gradientUnits="userSpaceOnUse">
      <stop stop-color="#FFD184" />
      <stop offset="1" stop-color="#FFAC57" />
    </linearGradient>
  </defs>
</svg>