<svg width="24" height="24" viewBox="0 0 24 24" fill="none" xmlns="http://www.w3.org/2000/svg">
<path fill-rule="evenodd" clip-rule="evenodd" d="M8.5 4C6.84315 4 5.5 5.34315 5.5 7C5.5 8.65685 6.84315 10 8.5 10C10.1569 10 11.5 8.65685 11.5 7C11.5 5.34315 10.1569 4 8.5 4ZM3.5 7C3.5 4.23858 5.73858 2 8.5 2C11.2614 2 13.5 4.23858 13.5 7C13.5 9.76142 11.2614 12 8.5 12C5.73858 12 3.5 9.76142 3.5 7ZM1.46447 15.4645C2.40215 14.5268 3.67392 14 5 14H12C13.3261 14 14.5979 14.5268 15.5355 15.4645C16.4732 16.4021 17 17.6739 17 19V21C17 21.5523 16.5523 22 16 22C15.4477 22 15 21.5523 15 21V19C15 18.2043 14.6839 17.4413 14.1213 16.8787C13.5587 16.3161 12.7957 16 12 16H5C4.20435 16 3.44129 16.3161 2.87868 16.8787C2.31607 17.4413 2 18.2043 2 19V21C2 21.5523 1.55228 22 1 22C0.447715 22 0 21.5523 0 21V19C0 17.6739 0.526785 16.4021 1.46447 15.4645ZM17 7C16.4477 7 16 7.44772 16 8C16 8.55228 16.4477 9 17 9H23C23.5523 9 24 8.55228 24 8C24 7.44772 23.5523 7 23 7H17ZM16 12C16 11.4477 16.4477 11 17 11H23C23.5523 11 24 11.4477 24 12C24 12.5523 23.5523 13 23 13H17C16.4477 13 16 12.5523 16 12ZM19 15C18.4477 15 18 15.4477 18 16C18 16.5523 18.4477 17 19 17H23C23.5523 17 24 16.5523 24 16C24 15.4477 23.5523 15 23 15H19Z" fill="#000429" fill-opacity="0.45"/>
</svg>
