<svg width="24" height="24" viewBox="0 0 24 24" fill="none" xmlns="http://www.w3.org/2000/svg">
<path fill-rule="evenodd" clip-rule="evenodd" d="M18.8283 7.17157C19.5784 7.92172 19.9998 8.93913 19.9998 10C19.9998 11.0609 19.5784 12.0783 18.8283 12.8284C18.0781 13.5786 17.0607 14 15.9998 14C15.4476 14 14.9998 14.4477 14.9998 15C14.9998 15.5523 15.4476 16 15.9998 16C17.0531 16 18.0877 16.2772 18.9998 16.8038C19.912 17.3305 20.6694 18.0879 21.196 19C21.4721 19.4783 22.0837 19.6422 22.562 19.366C23.0403 19.0899 23.2042 18.4783 22.928 18C22.2259 16.7838 21.216 15.7739 19.9998 15.0718C19.8538 14.9875 19.7055 14.908 19.555 14.8333C19.7973 14.6551 20.0272 14.4579 20.2425 14.2426C21.3677 13.1174 21.9998 11.5913 21.9998 10C21.9998 8.4087 21.3677 6.88258 20.2425 5.75736C19.1173 4.63214 17.5911 4 15.9998 4C15.4476 4 14.9998 4.44772 14.9998 5C14.9998 5.55228 15.4476 6 15.9998 6C17.0607 6 18.0781 6.42143 18.8283 7.17157ZM3.99984 10C3.99984 7.79086 5.7907 6 7.99984 6C10.209 6 11.9998 7.79086 11.9998 10C11.9998 12.2091 10.209 14 7.99984 14C5.7907 14 3.99984 12.2091 3.99984 10ZM13.9998 10C13.9998 11.9829 13.038 13.7411 11.5554 14.8335C11.7057 14.9081 11.854 14.9876 11.9998 15.0718C13.216 15.7739 14.2259 16.7838 14.928 18C15.2042 18.4783 15.0403 19.0899 14.562 19.366C14.0837 19.6422 13.4721 19.4783 13.196 19C12.6694 18.0879 11.912 17.3305 10.9998 16.8038C10.0877 16.2772 9.05306 16 7.99985 16C6.94663 16 5.91196 16.2772 4.99984 16.8038C4.08773 17.3305 3.3303 18.0879 2.80369 19C2.52755 19.4783 1.91596 19.6422 1.43767 19.366C0.959374 19.0899 0.795499 18.4783 1.07164 18C1.77379 16.7838 2.78369 15.7739 3.99984 15.0718C4.14573 14.9876 4.29397 14.9081 4.44432 14.8335C2.96172 13.7411 1.99984 11.9829 1.99984 10C1.99984 6.68629 4.68614 4 7.99984 4C11.3136 4 13.9998 6.68629 13.9998 10Z" fill="#D6913D"/>
</svg>
