<svg width="453" height="188" viewBox="0 0 453 188" fill="none" xmlns="http://www.w3.org/2000/svg">
<path d="M33.375 181.875C41.375 185.625 49.9167 187.5 59 187.5C70.3333 187.5 80.8333 184.833 90.5 179.5C100.167 174.083 107.958 166.833 113.875 157.75C119.792 148.583 122.75 138.333 122.75 127C122.75 115.667 120.292 105.625 115.375 96.875C110.542 88.0417 103.792 81.125 95.125 76.125C86.5417 71.0417 76.5833 68.5 65.25 68.5C60.25 68.5 54.875 69.3333 49.125 71C45.9563 71.9185 42.9774 73.1406 40.1883 74.6665L42.5668 35.5H110.75V3.75H12.5L7 99.5L35.75 108.25C37.75 106.333 40.75 104.333 44.75 102.25C48.75 100.083 53.9167 99 60.25 99C65.4167 99 70.125 100.25 74.375 102.75C78.7083 105.25 82.125 108.625 84.625 112.875C87.2083 117.125 88.5 121.833 88.5 127C88.5 132.167 87.2083 136.875 84.625 141.125C82.125 145.375 78.7083 148.75 74.375 151.25C70.125 153.75 65.4167 155 60.25 155C56.3333 155 52.5 154.167 48.75 152.5C45.0833 150.75 41.8333 148.333 39 145.25C36.25 142.167 34.3333 138.5 33.25 134.25L0.5 143C3 151.833 7.125 159.583 12.875 166.25C18.625 172.917 25.4583 178.125 33.375 181.875Z" fill="#02062E"/>
<path fill-rule="evenodd" clip-rule="evenodd" d="M183.217 179.125C193.217 184.708 204.883 187.5 218.217 187.5C231.55 187.5 243.217 184.708 253.217 179.125C263.217 173.542 271.008 165.75 276.592 155.75C282.175 145.75 284.967 134.083 284.967 120.75V66.75C284.967 53.4167 282.175 41.75 276.592 31.75C271.008 21.75 263.217 13.9583 253.217 8.37499C243.217 2.79166 231.55 0 218.217 0C204.883 0 193.217 2.79166 183.217 8.37499C173.217 13.9583 165.425 21.75 159.842 31.75C154.258 41.75 151.467 53.4167 151.467 66.75V120.75C151.467 134.083 154.258 145.75 159.842 155.75C165.425 165.75 173.217 173.542 183.217 179.125ZM234.467 151C229.633 153.833 224.217 155.25 218.217 155.25C212.217 155.25 206.8 153.833 201.967 151C197.133 148.167 193.3 144.333 190.467 139.5C187.633 134.667 186.217 129.25 186.217 123.25V64C186.217 58 187.633 52.5833 190.467 47.75C193.3 42.9167 197.133 39.0833 201.967 36.25C206.8 33.4167 212.217 32 218.217 32C224.217 32 229.633 33.4167 234.467 36.25C239.3 39.0833 243.133 42.9167 245.967 47.75C248.8 52.5833 250.217 58 250.217 64V123.25C250.217 129.25 248.8 134.667 245.967 139.5C243.133 144.333 239.3 148.167 234.467 151Z" fill="#02062E"/>
<path fill-rule="evenodd" clip-rule="evenodd" d="M350.424 179.125C360.424 184.708 372.09 187.5 385.424 187.5C398.757 187.5 410.424 184.708 420.424 179.125C430.424 173.542 438.215 165.75 443.799 155.75C449.382 145.75 452.174 134.083 452.174 120.75V66.75C452.174 53.4167 449.382 41.75 443.799 31.75C438.215 21.75 430.424 13.9583 420.424 8.37499C410.424 2.79166 398.757 0 385.424 0C372.09 0 360.424 2.79166 350.424 8.37499C340.424 13.9583 332.632 21.75 327.049 31.75C321.465 41.75 318.674 53.4167 318.674 66.75V120.75C318.674 134.083 321.465 145.75 327.049 155.75C332.632 165.75 340.424 173.542 350.424 179.125ZM401.674 151C396.841 153.833 391.424 155.25 385.424 155.25C379.424 155.25 374.007 153.833 369.174 151C364.34 148.167 360.507 144.333 357.674 139.5C354.84 134.667 353.424 129.25 353.424 123.25V64C353.424 58 354.84 52.5833 357.674 47.75C360.507 42.9167 364.34 39.0833 369.174 36.25C374.007 33.4167 379.424 32 385.424 32C391.424 32 396.841 33.4167 401.674 36.25C406.507 39.0833 410.341 42.9167 413.174 47.75C416.007 52.5833 417.424 58 417.424 64V123.25C417.424 129.25 416.007 134.667 413.174 139.5C410.341 144.333 406.507 148.167 401.674 151Z" fill="#02062E"/>
<g filter="url(#filter0_iii_10826_427243)">
<path d="M212.285 63.3996C221.163 29.5674 266.948 25.5499 283.343 54.4565L294.651 48.043C273.046 9.94991 211.826 13.9324 199.711 60.1C191.453 91.5687 215.353 123.25 255.997 123.25H284.997V110.25H255.997C222.65 110.25 206.49 85.4822 212.285 63.3996Z" fill="#CC9A6C"/>
<path d="M452.351 110.25H318.672V123.25H452.351V110.25Z" fill="#CC9A6C"/>
</g>
<rect x="266.07" y="51.9346" width="40.0236" height="18.3065" rx="5" transform="rotate(-30.3228 266.07 51.9346)" fill="white"/>
<rect x="266.07" y="51.9346" width="40.0236" height="18.3065" rx="5" transform="rotate(-30.3228 266.07 51.9346)" fill="#000429" fill-opacity="0.2"/>
<path d="M281 51.75L283.5 47.75M290 44.25H295" stroke="#02062E" stroke-width="2" stroke-linecap="round" stroke-linejoin="round"/>
<path d="M288 110.25L292 106.25M287 123.75L292 127.75M289 116.25H297M316.5 110.25L311.5 106.25M316.5 123.75L311.5 127.75M307 116.25H315" stroke="#CC9A6C" stroke-width="2" stroke-linecap="round" stroke-linejoin="round"/>
<rect x="282" y="60.6348" width="7.69414" height="16.5106" rx="3" transform="rotate(-30.3228 282 60.6348)" fill="url(#paint0_linear_10826_427243)"/>
<rect x="294" y="53.6348" width="7.69414" height="16.5106" rx="3" transform="rotate(-30.3228 294 53.6348)" fill="url(#paint1_linear_10826_427243)"/>
<defs>
<filter id="filter0_iii_10826_427243" x="198.086" y="18.1875" width="254.266" height="109.062" filterUnits="userSpaceOnUse" color-interpolation-filters="sRGB">
<feFlood flood-opacity="0" result="BackgroundImageFix"/>
<feBlend mode="normal" in="SourceGraphic" in2="BackgroundImageFix" result="shape"/>
<feColorMatrix in="SourceAlpha" type="matrix" values="0 0 0 0 0 0 0 0 0 0 0 0 0 0 0 0 0 0 127 0" result="hardAlpha"/>
<feOffset dy="4"/>
<feGaussianBlur stdDeviation="2"/>
<feComposite in2="hardAlpha" operator="arithmetic" k2="-1" k3="1"/>
<feColorMatrix type="matrix" values="0 0 0 0 1 0 0 0 0 1 0 0 0 0 1 0 0 0 0.56 0"/>
<feBlend mode="normal" in2="shape" result="effect1_innerShadow_10826_427243"/>
<feColorMatrix in="SourceAlpha" type="matrix" values="0 0 0 0 0 0 0 0 0 0 0 0 0 0 0 0 0 0 127 0" result="hardAlpha"/>
<feOffset dy="-4"/>
<feGaussianBlur stdDeviation="4"/>
<feComposite in2="hardAlpha" operator="arithmetic" k2="-1" k3="1"/>
<feColorMatrix type="matrix" values="0 0 0 0 0.00784314 0 0 0 0 0.0235294 0 0 0 0 0.180392 0 0 0 0.64 0"/>
<feBlend mode="normal" in2="effect1_innerShadow_10826_427243" result="effect2_innerShadow_10826_427243"/>
<feColorMatrix in="SourceAlpha" type="matrix" values="0 0 0 0 0 0 0 0 0 0 0 0 0 0 0 0 0 0 127 0" result="hardAlpha"/>
<feOffset dy="-1"/>
<feGaussianBlur stdDeviation="1"/>
<feComposite in2="hardAlpha" operator="arithmetic" k2="-1" k3="1"/>
<feColorMatrix type="matrix" values="0 0 0 0 1 0 0 0 0 1 0 0 0 0 1 0 0 0 0.24 0"/>
<feBlend mode="normal" in2="effect2_innerShadow_10826_427243" result="effect3_innerShadow_10826_427243"/>
</filter>
<linearGradient id="paint0_linear_10826_427243" x1="285.847" y1="60.6348" x2="285.847" y2="77.1454" gradientUnits="userSpaceOnUse">
<stop stop-color="#02062E"/>
<stop offset="1" stop-color="#EDEDF0"/>
</linearGradient>
<linearGradient id="paint1_linear_10826_427243" x1="297.847" y1="53.6348" x2="297.847" y2="70.1454" gradientUnits="userSpaceOnUse">
<stop stop-color="#02062E"/>
<stop offset="1" stop-color="#EDEDF0"/>
</linearGradient>
</defs>
</svg>
