<?xml version="1.0" standalone="no"?>
<!DOCTYPE svg PUBLIC "-//W3C//DTD SVG 20010904//EN"
 "http://www.w3.org/TR/2001/REC-SVG-20010904/DTD/svg10.dtd">
<svg version="1.0" xmlns="http://www.w3.org/2000/svg"
 width="700.000000pt" height="700.000000pt" viewBox="0 0 700.000000 700.000000"
 preserveAspectRatio="xMidYMid meet">
<metadata>
Created by potrace 1.14, written by Peter Selinger 2001-2017
</metadata>
<g transform="translate(0.000000,700.000000) scale(0.100000,-0.100000)"
fill="#000000" stroke="none">
<path d="M5355 6006 c-83 -32 -148 -91 -197 -179 l-23 -42 0 -430 c0 -331 -3
-435 -13 -452 -14 -25 -61 -53 -88 -53 -9 0 -125 41 -258 91 -132 51 -281 107
-331 126 -121 46 -166 53 -243 40 -98 -17 -200 -93 -245 -183 -26 -51 -46
-135 -41 -170 18 -134 33 -172 98 -242 54 -58 86 -71 586 -226 96 -29 187 -59
202 -65 42 -16 70 -67 65 -117 -4 -44 5 -29 -308 -449 -74 -99 -144 -204 -157
-233 -78 -181 23 -403 213 -467 116 -39 245 -9 334 75 26 25 278 398 408 603
33 52 75 77 116 67 45 -10 75 -27 87 -51 31 -58 387 -589 414 -617 50 -54 149
-96 226 -96 102 0 221 64 281 151 45 64 61 119 62 210 0 72 -3 88 -31 145 -18
35 -58 97 -89 139 -32 42 -66 87 -76 100 -9 13 -78 106 -153 206 -90 122 -137
194 -141 216 -7 43 18 92 55 111 24 12 210 71 542 173 204 62 263 103 318 222
23 48 27 69 26 146 0 79 -4 98 -31 155 -16 36 -48 82 -69 104 -69 69 -184 109
-274 95 -37 -5 -366 -125 -647 -235 -72 -28 -89 -29 -130 -9 -49 25 -60 60
-56 183 1 59 4 242 5 407 l3 300 -27 57 c-35 75 -98 142 -165 175 -45 21 -71
27 -137 28 -44 1 -94 -3 -111 -9z"/>
<path d="M1427 4533 c-144 -49 -233 -220 -189 -368 26 -89 86 -160 171 -199
45 -20 59 -21 596 -24 302 -1 552 -7 555 -11 7 -13 4 -1076 -4 -1136 -30 -225
-121 -412 -275 -565 -248 -246 -598 -333 -939 -234 -276 80 -507 291 -614 559
-20 51 -25 68 -34 119 -3 16 -10 41 -16 55 -18 45 -20 335 -2 426 25 131 71
250 136 356 82 135 66 290 -42 400 -74 75 -146 103 -246 97 -158 -10 -250 -99
-372 -358 -70 -148 -102 -254 -137 -460 -18 -100 -12 -402 9 -550 55 -369 260
-726 554 -963 71 -57 252 -177 268 -177 4 0 32 -12 62 -26 81 -38 214 -79 327
-100 140 -26 408 -25 535 1 14 3 36 7 49 10 227 45 502 187 681 352 19 18 36
31 38 29 1 -2 4 -41 6 -87 2 -46 7 -97 11 -114 21 -85 88 -162 175 -204 48
-23 68 -26 155 -26 89 0 106 3 155 27 72 35 117 80 149 148 l26 55 0 1350 0
1350 -31 65 c-18 36 -40 74 -51 85 -53 53 -93 83 -143 105 l-55 25 -730 2
c-648 2 -735 0 -778 -14z"/>
</g>
</svg>
