<svg width="24" height="24" viewBox="0 0 24 24" fill="none" xmlns="http://www.w3.org/2000/svg">
<path d="M12 1C5.92339 1 1 5.92339 1 12C1 18.0766 5.92339 23 12 23C18.0766 23 23 18.0766 23 12C23 5.92339 18.0766 1 12 1ZM17.4024 8.53589L15.5972 17.0431C15.4641 17.6464 15.1048 17.7927 14.6036 17.5089L11.8536 15.4819L10.5274 16.7593C10.381 16.9056 10.2569 17.0298 9.97298 17.0298L10.1681 14.231L15.2645 9.62702C15.4863 9.43185 15.2157 9.32097 14.923 9.51613L8.6246 13.4815L5.91008 12.6343C5.32016 12.448 5.30685 12.0444 6.03427 11.7605L16.6395 7.67097C17.1319 7.49355 17.5621 7.79073 17.4024 8.53589Z" fill="white"/>
</svg>
