<svg width="100%" height="100%" viewBox="0 0 24 24" fill="none" xmlns="http://www.w3.org/2000/svg">
<path fill-rule="evenodd" clip-rule="evenodd" d="M22.7029 6.02491C22.8752 5.44678 22.7029 5.0263 21.9396 5.0263H19.4033C18.7631 5.0263 18.4676 5.39418 18.2953 5.78845C18.2953 5.78845 16.9902 9.15224 15.1681 11.3334C14.5771 11.9641 14.3062 12.1744 13.9862 12.1744C13.8138 12.1744 13.5922 11.9641 13.5922 11.386V5.99861C13.5922 5.31536 13.3952 5 12.8534 5H8.86447C8.47049 5 8.22428 5.31536 8.22428 5.63073C8.22428 6.28775 9.13531 6.44539 9.23381 8.28497V12.2795C9.23381 13.1468 9.0861 13.3044 8.76597 13.3044C7.90415 13.3044 5.81117 9.91431 4.55537 6.05121C4.30909 5.28906 4.06289 5 3.4227 5H0.861813C0.123123 5 0 5.36796 0 5.76215C0 6.47169 0.861813 10.0457 4.01361 14.7761C6.10666 18.0085 9.0861 19.7429 11.7701 19.7429C13.3952 19.7429 13.5922 19.3487 13.5922 18.6918V16.2478C13.5922 15.4593 13.7399 15.328 14.257 15.328C14.6264 15.328 15.2912 15.5382 16.7932 17.0887C18.5168 18.9283 18.8123 19.7692 19.7726 19.7692H22.3089C23.0476 19.7692 23.3923 19.375 23.1954 18.6129C22.9737 17.8508 22.1365 16.7471 21.0531 15.433C20.4621 14.6973 19.5757 13.8826 19.3048 13.4883C18.9355 12.9628 19.034 12.7526 19.3048 12.2795C19.2802 12.2795 22.3827 7.60173 22.7029 6.02491Z" fill="currentColor"/>
</svg>
