<svg width="24" height="24" viewBox="0 0 24 24" fill="none" xmlns="http://www.w3.org/2000/svg">
<path fill-rule="evenodd" clip-rule="evenodd" d="M19.7812 4.21897C20.7952 5.23549 21.5908 6.41897 22.1457 7.7375C22.7178 9.10268 23.0075 10.5538 23.0001 12.0491C22.9928 13.5371 22.6981 14.9783 22.1187 16.3337C21.5613 17.6424 20.7633 18.8161 19.7492 19.8203C18.7376 20.8246 17.5566 21.6103 16.243 22.1578C14.8999 22.7152 13.4734 23 12.0026 23H11.951C10.247 22.9926 8.55527 22.585 7.04277 21.8214H3.30818C2.68451 21.8214 2.17871 21.3156 2.17871 20.692V16.9598C1.41509 15.4473 1.00751 13.7556 1.00014 12.0516C0.992773 10.5636 1.27759 9.11741 1.84233 7.75714C2.38742 6.44353 3.17559 5.26496 4.17983 4.25089C5.18407 3.23683 6.35773 2.44129 7.66643 1.88147C9.02179 1.30201 10.4631 1.00737 11.951 1H12.0001C13.4783 1 14.9122 1.28728 16.2626 1.85446C17.5836 2.40692 18.7671 3.20491 19.7812 4.21897ZM15.0983 13.2792C15.3462 13.3676 16.6795 14.0208 16.9471 14.1583C16.9907 14.1795 17.0321 14.199 17.071 14.2175C17.2709 14.3122 17.4073 14.3767 17.4628 14.4775C17.5291 14.5904 17.5291 15.133 17.3056 15.7665C17.0822 16.4025 16.0043 16.977 15.4813 17.0556C14.6219 17.1833 13.9491 17.1194 12.2304 16.3779C9.69948 15.2828 7.9903 12.8401 7.65591 12.3622C7.63118 12.3268 7.61397 12.3022 7.6045 12.2897C7.60122 12.2852 7.59743 12.2801 7.59315 12.2742C7.42453 12.0442 6.50205 10.7861 6.50205 9.48817C6.50205 8.24563 7.11208 7.59172 7.39485 7.28861C7.41493 7.26708 7.43337 7.24732 7.44981 7.22924C7.69781 6.96161 7.98999 6.89286 8.17169 6.89286C8.35339 6.89286 8.53263 6.89286 8.68977 6.90268C8.70979 6.90387 8.73072 6.90383 8.75244 6.90379C8.90916 6.90348 9.10677 6.90309 9.2987 7.36674C9.3743 7.54836 9.48512 7.81828 9.60168 8.10219C9.83338 8.66654 10.0878 9.2862 10.1335 9.37768C10.2023 9.51518 10.2465 9.66987 10.1581 9.85156C9.92788 10.3109 9.69042 10.5593 9.52193 10.7356C9.3112 10.956 9.20836 11.0636 9.36254 11.3297C10.411 13.1295 11.4545 13.7531 13.0456 14.5487C13.3132 14.6837 13.4728 14.6616 13.6299 14.4799C13.792 14.2958 14.3076 13.6893 14.4893 13.4167C14.6686 13.1417 14.8503 13.1859 15.0983 13.2792Z" fill="white"/>
</svg>
